<svg xmlns="http://www.w3.org/2000/svg" xmlns:xlink="http://www.w3.org/1999/xlink" width="116" zoomAndPan="magnify" viewBox="0 0 87 86.999996" height="116" preserveAspectRatio="xMidYMid meet" version="1.0"><defs><clipPath id="32f94f6fd6"><path d="M 2.34375 9 L 85.59375 9 L 85.59375 79.199219 L 2.34375 79.199219 Z M 2.34375 9 " clip-rule="nonzero"/></clipPath><clipPath id="1bcb88e0c2"><path d="M 26 19 L 60 19 L 60 65 L 26 65 Z M 26 19 " clip-rule="nonzero"/></clipPath><clipPath id="8bb56e1aa9"><path d="M 69.066406 29.484375 L 57.96875 66.871094 L 17.703125 54.917969 L 28.800781 17.53125 Z M 69.066406 29.484375 " clip-rule="nonzero"/></clipPath><clipPath id="46ff7e8424"><path d="M 69.066406 29.484375 L 57.96875 66.871094 L 17.703125 54.917969 L 28.800781 17.53125 Z M 69.066406 29.484375 " clip-rule="nonzero"/></clipPath><clipPath id="36a55ea1ae"><path d="M 57 39 L 66 39 L 66 59 L 57 59 Z M 57 39 " clip-rule="nonzero"/></clipPath><clipPath id="b0f41eb4c0"><path d="M 69.066406 29.484375 L 57.96875 66.871094 L 17.703125 54.917969 L 28.800781 17.53125 Z M 69.066406 29.484375 " clip-rule="nonzero"/></clipPath><clipPath id="32b1bc4322"><path d="M 69.066406 29.484375 L 57.96875 66.871094 L 17.703125 54.917969 L 28.800781 17.53125 Z M 69.066406 29.484375 " clip-rule="nonzero"/></clipPath><clipPath id="179c221c78"><path d="M 62 37 L 67 37 L 67 42 L 62 42 Z M 62 37 " clip-rule="nonzero"/></clipPath><clipPath id="e2be449c14"><path d="M 69.066406 29.484375 L 57.96875 66.871094 L 17.703125 54.917969 L 28.800781 17.53125 Z M 69.066406 29.484375 " clip-rule="nonzero"/></clipPath><clipPath id="a26b6df761"><path d="M 69.066406 29.484375 L 57.96875 66.871094 L 17.703125 54.917969 L 28.800781 17.53125 Z M 69.066406 29.484375 " clip-rule="nonzero"/></clipPath><clipPath id="8fefbcabf9"><path d="M 63 38 L 66 38 L 66 41 L 63 41 Z M 63 38 " clip-rule="nonzero"/></clipPath><clipPath id="0db2b0546d"><path d="M 69.066406 29.484375 L 57.96875 66.871094 L 17.703125 54.917969 L 28.800781 17.53125 Z M 69.066406 29.484375 " clip-rule="nonzero"/></clipPath><clipPath id="5a1cbf66a6"><path d="M 69.066406 29.484375 L 57.96875 66.871094 L 17.703125 54.917969 L 28.800781 17.53125 Z M 69.066406 29.484375 " clip-rule="nonzero"/></clipPath><clipPath id="cd869d2e86"><path d="M 50 61 L 54 61 L 54 66 L 50 66 Z M 50 61 " clip-rule="nonzero"/></clipPath><clipPath id="52325db86d"><path d="M 69.066406 29.484375 L 57.96875 66.871094 L 17.703125 54.917969 L 28.800781 17.53125 Z M 69.066406 29.484375 " clip-rule="nonzero"/></clipPath><clipPath id="7c4b9a9c2c"><path d="M 69.066406 29.484375 L 57.96875 66.871094 L 17.703125 54.917969 L 28.800781 17.53125 Z M 69.066406 29.484375 " clip-rule="nonzero"/></clipPath><clipPath id="c255ee76e7"><path d="M 50 62 L 54 62 L 54 65 L 50 65 Z M 50 62 " clip-rule="nonzero"/></clipPath><clipPath id="35249c43af"><path d="M 69.066406 29.484375 L 57.96875 66.871094 L 17.703125 54.917969 L 28.800781 17.53125 Z M 69.066406 29.484375 " clip-rule="nonzero"/></clipPath><clipPath id="5ad879db5a"><path d="M 69.066406 29.484375 L 57.96875 66.871094 L 17.703125 54.917969 L 28.800781 17.53125 Z M 69.066406 29.484375 " clip-rule="nonzero"/></clipPath><clipPath id="2f203ea171"><path d="M 51 24 L 55 24 L 55 29 L 51 29 Z M 51 24 " clip-rule="nonzero"/></clipPath><clipPath id="15cec4726d"><path d="M 69.066406 29.484375 L 57.96875 66.871094 L 17.703125 54.917969 L 28.800781 17.53125 Z M 69.066406 29.484375 " clip-rule="nonzero"/></clipPath><clipPath id="136d4f144a"><path d="M 69.066406 29.484375 L 57.96875 66.871094 L 17.703125 54.917969 L 28.800781 17.53125 Z M 69.066406 29.484375 " clip-rule="nonzero"/></clipPath><clipPath id="e63614317d"><path d="M 51 25 L 55 25 L 55 28 L 51 28 Z M 51 25 " clip-rule="nonzero"/></clipPath><clipPath id="cd1d109e3e"><path d="M 69.066406 29.484375 L 57.96875 66.871094 L 17.703125 54.917969 L 28.800781 17.53125 Z M 69.066406 29.484375 " clip-rule="nonzero"/></clipPath><clipPath id="628bb795be"><path d="M 69.066406 29.484375 L 57.96875 66.871094 L 17.703125 54.917969 L 28.800781 17.53125 Z M 69.066406 29.484375 " clip-rule="nonzero"/></clipPath><clipPath id="d9b9ca9175"><path d="M 31 56 L 36 56 L 36 60 L 31 60 Z M 31 56 " clip-rule="nonzero"/></clipPath><clipPath id="77e21ac9e4"><path d="M 69.066406 29.484375 L 57.96875 66.871094 L 17.703125 54.917969 L 28.800781 17.53125 Z M 69.066406 29.484375 " clip-rule="nonzero"/></clipPath><clipPath id="5dcf33cfe3"><path d="M 69.066406 29.484375 L 57.96875 66.871094 L 17.703125 54.917969 L 28.800781 17.53125 Z M 69.066406 29.484375 " clip-rule="nonzero"/></clipPath><clipPath id="9e5288c5d7"><path d="M 32 56 L 35 56 L 35 59 L 32 59 Z M 32 56 " clip-rule="nonzero"/></clipPath><clipPath id="ff356d640f"><path d="M 69.066406 29.484375 L 57.96875 66.871094 L 17.703125 54.917969 L 28.800781 17.53125 Z M 69.066406 29.484375 " clip-rule="nonzero"/></clipPath><clipPath id="8e28e23df4"><path d="M 69.066406 29.484375 L 57.96875 66.871094 L 17.703125 54.917969 L 28.800781 17.53125 Z M 69.066406 29.484375 " clip-rule="nonzero"/></clipPath><clipPath id="43ed7a7746"><path d="M 32 19 L 36 19 L 36 23 L 32 23 Z M 32 19 " clip-rule="nonzero"/></clipPath><clipPath id="497ad2cade"><path d="M 69.066406 29.484375 L 57.96875 66.871094 L 17.703125 54.917969 L 28.800781 17.53125 Z M 69.066406 29.484375 " clip-rule="nonzero"/></clipPath><clipPath id="bee4aaf3e2"><path d="M 69.066406 29.484375 L 57.96875 66.871094 L 17.703125 54.917969 L 28.800781 17.53125 Z M 69.066406 29.484375 " clip-rule="nonzero"/></clipPath><clipPath id="aef50b633f"><path d="M 33 19 L 36 19 L 36 23 L 33 23 Z M 33 19 " clip-rule="nonzero"/></clipPath><clipPath id="975bf3e91f"><path d="M 69.066406 29.484375 L 57.96875 66.871094 L 17.703125 54.917969 L 28.800781 17.53125 Z M 69.066406 29.484375 " clip-rule="nonzero"/></clipPath><clipPath id="b61198916b"><path d="M 69.066406 29.484375 L 57.96875 66.871094 L 17.703125 54.917969 L 28.800781 17.53125 Z M 69.066406 29.484375 " clip-rule="nonzero"/></clipPath><clipPath id="3504ed6656"><path d="M 21 25 L 29 25 L 29 46 L 21 46 Z M 21 25 " clip-rule="nonzero"/></clipPath><clipPath id="2655fbad9f"><path d="M 69.066406 29.484375 L 57.96875 66.871094 L 17.703125 54.917969 L 28.800781 17.53125 Z M 69.066406 29.484375 " clip-rule="nonzero"/></clipPath><clipPath id="50567135c5"><path d="M 69.066406 29.484375 L 57.96875 66.871094 L 17.703125 54.917969 L 28.800781 17.53125 Z M 69.066406 29.484375 " clip-rule="nonzero"/></clipPath><clipPath id="0015670ce6"><path d="M 20 43 L 24 43 L 24 47 L 20 47 Z M 20 43 " clip-rule="nonzero"/></clipPath><clipPath id="e4ef3d85eb"><path d="M 69.066406 29.484375 L 57.96875 66.871094 L 17.703125 54.917969 L 28.800781 17.53125 Z M 69.066406 29.484375 " clip-rule="nonzero"/></clipPath><clipPath id="813fa6a90a"><path d="M 69.066406 29.484375 L 57.96875 66.871094 L 17.703125 54.917969 L 28.800781 17.53125 Z M 69.066406 29.484375 " clip-rule="nonzero"/></clipPath><clipPath id="e4383d6fd2"><path d="M 13.316406 48.589844 L 21.566406 48.589844 L 21.566406 58 L 13.316406 58 Z M 13.316406 48.589844 " clip-rule="nonzero"/></clipPath><clipPath id="b6c447e966"><path d="M 16 57 L 19 57 L 19 59.839844 L 16 59.839844 Z M 16 57 " clip-rule="nonzero"/></clipPath><clipPath id="0031b7b7a4"><path d="M 67.265625 11.519531 L 74.765625 11.519531 L 74.765625 37.769531 L 67.265625 37.769531 Z M 67.265625 11.519531 " clip-rule="nonzero"/></clipPath></defs><g clip-path="url(#32f94f6fd6)"><path fill="#043044" d="M 85.347656 26.882812 C 85.234375 24.914062 85.957031 22.714844 84.648438 21.003906 C 82.359375 20.375 80.078125 19.734375 77.78125 19.171875 C 77.660156 16.328125 77.886719 13.472656 77.675781 10.636719 C 77.347656 8.699219 74.988281 9.375 73.621094 9.359375 C 61.777344 9.953125 50.859375 16.65625 43.890625 26.078125 C 36.398438 15.867188 24.117188 8.832031 11.257812 9.359375 C 11 9.578125 10.484375 10.011719 10.21875 10.230469 C 9.828125 13.179688 10.199219 16.191406 10.039062 19.164062 C 7.433594 20.214844 3.585938 20.050781 2.34375 23.054688 C 2.832031 24.238281 2.945312 25.523438 2.894531 26.800781 C 2.78125 41.859375 2.996094 56.910156 2.789062 71.964844 C 2.59375 73.097656 2.800781 75.105469 4.429688 74.75 C 9.695312 72.835938 15.363281 72.144531 20.949219 72.46875 C 28.539062 73.0625 36.421875 74.84375 42.660156 79.390625 C 43.269531 79.390625 44.476562 79.390625 45.078125 79.398438 C 48.53125 76.746094 52.71875 75.304688 56.855469 74.113281 C 65.722656 71.628906 75.292969 71.859375 84.011719 74.839844 C 85.871094 74.527344 85.367188 72.484375 85.382812 71.132812 C 85.304688 56.386719 85.371094 41.632812 85.347656 26.882812 Z M 6.0625 70.671875 C 6.105469 55.125 6.054688 39.566406 6.082031 24.019531 C 7.414062 23.546875 8.75 23.074219 10.085938 22.609375 C 10.054688 35.027344 10.0625 47.445312 10.078125 59.863281 C 9.90625 62.121094 12.730469 61.722656 14.199219 61.867188 C 22.984375 62.234375 30.980469 66.703125 37.363281 72.503906 C 27.511719 68.527344 16.292969 67.625 6.0625 70.671875 Z M 48.945312 73.300781 C 53.816406 68.535156 59.433594 64.253906 66.105469 62.414062 C 69.546875 61.25 73.1875 61.136719 76.761719 60.800781 C 77.914062 60.65625 77.675781 59.21875 77.757812 58.40625 C 77.75 46.527344 77.742188 34.652344 77.75 22.773438 C 79.183594 23.210938 80.617188 23.644531 82.058594 24.066406 C 82.261719 39.613281 82.066406 55.167969 82.15625 70.71875 C 71.234375 67.691406 59.304688 68.773438 48.945312 73.300781 Z M 48.945312 73.300781 " fill-opacity="1" fill-rule="nonzero"/></g><g clip-path="url(#1bcb88e0c2)"><g clip-path="url(#8bb56e1aa9)"><g clip-path="url(#46ff7e8424)"><path fill="#ffffff" d="M 55.351562 62.125 C 54.484375 62.59375 53.433594 62.738281 52.421875 62.433594 C 51.40625 62.132812 50.605469 61.445312 50.132812 60.574219 C 49.660156 59.703125 49.519531 58.65625 49.820312 57.640625 L 50.429688 55.59375 L 50.953125 53.828125 L 57.144531 32.972656 C 57.601562 31.429688 57.386719 29.835938 56.671875 28.515625 C 56.613281 28.410156 56.550781 28.304688 56.488281 28.199219 C 55.757812 27.03125 54.613281 26.109375 53.195312 25.6875 C 51.773438 25.265625 50.3125 25.414062 49.0625 25.996094 C 48.949219 26.046875 48.84375 26.101562 48.734375 26.160156 C 47.417969 26.875 46.367188 28.09375 45.910156 29.640625 L 38.585938 54.308594 C 38.285156 55.324219 37.59375 56.121094 36.726562 56.59375 C 35.855469 57.066406 34.808594 57.207031 33.792969 56.90625 C 32.777344 56.605469 31.976562 55.914062 31.503906 55.046875 C 31.035156 54.175781 30.890625 53.128906 31.195312 52.113281 L 38.515625 27.445312 C 38.976562 25.898438 38.761719 24.304688 38.042969 22.988281 C 37.988281 22.878906 37.925781 22.773438 37.859375 22.671875 C 37.128906 21.5 35.988281 20.582031 34.566406 20.160156 C 33.019531 19.699219 31.429688 19.914062 30.109375 20.632812 C 28.789062 21.347656 27.738281 22.5625 27.28125 24.109375 L 26.671875 26.15625 L 28.59375 26.726562 L 29.203125 24.679688 C 29.503906 23.664062 30.195312 22.863281 31.0625 22.394531 C 31.933594 21.921875 32.980469 21.78125 33.996094 22.082031 C 35.011719 22.382812 35.8125 23.074219 36.28125 23.941406 C 36.753906 24.8125 36.894531 25.859375 36.59375 26.875 L 29.273438 51.542969 C 28.8125 53.089844 29.027344 54.679688 29.742188 56 C 29.800781 56.105469 29.863281 56.210938 29.925781 56.316406 C 30.660156 57.488281 31.800781 58.40625 33.222656 58.828125 C 34.644531 59.25 36.101562 59.101562 37.355469 58.519531 C 37.464844 58.46875 37.574219 58.414062 37.679688 58.355469 C 39 57.640625 40.046875 56.421875 40.507812 54.878906 L 47.828125 30.207031 C 48.132812 29.195312 48.820312 28.394531 49.691406 27.921875 C 50.558594 27.449219 51.609375 27.308594 52.625 27.609375 C 53.636719 27.910156 54.4375 28.601562 54.910156 29.472656 C 55.382812 30.339844 55.523438 31.386719 55.222656 32.402344 L 47.898438 57.070312 C 47.441406 58.617188 47.65625 60.210938 48.371094 61.53125 C 48.429688 61.636719 48.492188 61.742188 48.554688 61.84375 C 49.285156 63.015625 50.429688 63.933594 51.847656 64.355469 C 53.394531 64.816406 54.988281 64.601562 56.308594 63.886719 C 57.628906 63.167969 58.675781 61.953125 59.132812 60.40625 L 59.742188 58.359375 L 57.820312 57.789062 L 57.214844 59.835938 C 56.910156 60.851562 56.222656 61.652344 55.351562 62.125 Z M 55.351562 62.125 " fill-opacity="1" fill-rule="evenodd"/></g></g></g><g clip-path="url(#36a55ea1ae)"><g clip-path="url(#b0f41eb4c0)"><g clip-path="url(#32b1bc4322)"><path fill="#ffffff" d="M 65.273438 39.722656 L 59.558594 58.980469 L 57.636719 58.410156 L 63.351562 39.152344 Z M 65.273438 39.722656 " fill-opacity="1" fill-rule="evenodd"/></g></g></g><g clip-path="url(#179c221c78)"><g clip-path="url(#e2be449c14)"><g clip-path="url(#a26b6df761)"><path fill="#ffffff" d="M 63.824219 41.089844 C 63.601562 41.027344 63.40625 40.921875 63.226562 40.777344 C 63.050781 40.632812 62.90625 40.460938 62.796875 40.261719 C 62.6875 40.058594 62.621094 39.84375 62.597656 39.617188 C 62.574219 39.390625 62.59375 39.167969 62.660156 38.949219 C 62.726562 38.730469 62.828125 38.53125 62.972656 38.351562 C 63.117188 38.175781 63.289062 38.03125 63.492188 37.921875 C 63.691406 37.8125 63.90625 37.746094 64.132812 37.722656 C 64.359375 37.699219 64.585938 37.71875 64.804688 37.785156 C 65.023438 37.851562 65.222656 37.957031 65.398438 38.097656 C 65.578125 38.242188 65.71875 38.414062 65.828125 38.617188 C 65.9375 38.816406 66.003906 39.03125 66.027344 39.257812 C 66.050781 39.488281 66.03125 39.710938 65.964844 39.929688 C 65.902344 40.148438 65.796875 40.347656 65.652344 40.523438 C 65.507812 40.703125 65.335938 40.84375 65.136719 40.953125 C 64.933594 41.0625 64.71875 41.128906 64.492188 41.152344 C 64.265625 41.175781 64.042969 41.15625 63.824219 41.089844 Z M 63.824219 41.089844 " fill-opacity="1" fill-rule="nonzero"/></g></g></g><g clip-path="url(#8fefbcabf9)"><g clip-path="url(#0db2b0546d)"><g clip-path="url(#5a1cbf66a6)"><path fill="#043044" d="M 63.972656 40.582031 C 63.820312 40.535156 63.683594 40.464844 63.5625 40.363281 C 63.4375 40.265625 63.339844 40.144531 63.265625 40.007812 C 63.1875 39.867188 63.144531 39.71875 63.125 39.5625 C 63.109375 39.40625 63.125 39.25 63.167969 39.097656 C 63.214844 38.945312 63.285156 38.808594 63.386719 38.6875 C 63.484375 38.5625 63.605469 38.464844 63.746094 38.390625 C 63.882812 38.3125 64.03125 38.269531 64.1875 38.253906 C 64.347656 38.234375 64.5 38.25 64.652344 38.292969 C 64.804688 38.339844 64.941406 38.414062 65.0625 38.511719 C 65.1875 38.613281 65.285156 38.730469 65.363281 38.871094 C 65.4375 39.007812 65.484375 39.15625 65.5 39.3125 C 65.515625 39.472656 65.5 39.625 65.457031 39.777344 C 65.410156 39.929688 65.339844 40.066406 65.238281 40.1875 C 65.140625 40.3125 65.019531 40.410156 64.882812 40.488281 C 64.742188 40.5625 64.59375 40.609375 64.4375 40.625 C 64.28125 40.640625 64.125 40.625 63.972656 40.582031 Z M 63.972656 40.582031 " fill-opacity="1" fill-rule="nonzero"/></g></g></g><g clip-path="url(#cd869d2e86)"><g clip-path="url(#52325db86d)"><g clip-path="url(#7c4b9a9c2c)"><path fill="#ffffff" d="M 51.605469 64.996094 C 51.386719 64.929688 51.1875 64.824219 51.011719 64.679688 C 50.832031 64.539062 50.691406 64.363281 50.582031 64.164062 C 50.472656 63.964844 50.40625 63.75 50.382812 63.523438 C 50.359375 63.292969 50.378906 63.070312 50.445312 62.851562 C 50.507812 62.632812 50.613281 62.433594 50.757812 62.257812 C 50.902344 62.078125 51.074219 61.9375 51.273438 61.828125 C 51.476562 61.71875 51.691406 61.652344 51.917969 61.628906 C 52.144531 61.605469 52.367188 61.625 52.585938 61.691406 C 52.804688 61.753906 53.003906 61.859375 53.183594 62.003906 C 53.359375 62.148438 53.503906 62.320312 53.613281 62.519531 C 53.722656 62.722656 53.785156 62.9375 53.8125 63.164062 C 53.835938 63.390625 53.8125 63.613281 53.75 63.832031 C 53.683594 64.050781 53.578125 64.25 53.433594 64.429688 C 53.292969 64.605469 53.117188 64.75 52.917969 64.859375 C 52.71875 64.964844 52.503906 65.03125 52.277344 65.058594 C 52.046875 65.082031 51.824219 65.058594 51.605469 64.996094 Z M 51.605469 64.996094 " fill-opacity="1" fill-rule="nonzero"/></g></g></g><g clip-path="url(#c255ee76e7)"><g clip-path="url(#35249c43af)"><g clip-path="url(#5ad879db5a)"><path fill="#043044" d="M 51.757812 64.484375 C 51.605469 64.441406 51.46875 64.367188 51.34375 64.269531 C 51.222656 64.167969 51.125 64.050781 51.046875 63.910156 C 50.972656 63.773438 50.925781 63.625 50.910156 63.464844 C 50.894531 63.308594 50.90625 63.15625 50.953125 63.003906 C 50.996094 62.851562 51.070312 62.714844 51.167969 62.589844 C 51.269531 62.46875 51.390625 62.371094 51.527344 62.292969 C 51.667969 62.21875 51.816406 62.171875 51.972656 62.15625 C 52.128906 62.140625 52.285156 62.152344 52.4375 62.199219 C 52.585938 62.242188 52.726562 62.316406 52.847656 62.414062 C 52.96875 62.515625 53.070312 62.636719 53.144531 62.773438 C 53.21875 62.914062 53.265625 63.0625 53.28125 63.21875 C 53.300781 63.375 53.285156 63.53125 53.238281 63.683594 C 53.195312 63.832031 53.121094 63.96875 53.023438 64.09375 C 52.921875 64.214844 52.804688 64.316406 52.664062 64.390625 C 52.527344 64.464844 52.378906 64.511719 52.21875 64.527344 C 52.0625 64.546875 51.910156 64.53125 51.757812 64.484375 Z M 51.757812 64.484375 " fill-opacity="1" fill-rule="nonzero"/></g></g></g><g clip-path="url(#2f203ea171)"><g clip-path="url(#15cec4726d)"><g clip-path="url(#136d4f144a)"><path fill="#ffffff" d="M 52.457031 28.339844 C 52.238281 28.273438 52.039062 28.167969 51.863281 28.023438 C 51.683594 27.882812 51.542969 27.707031 51.433594 27.507812 C 51.324219 27.308594 51.257812 27.09375 51.234375 26.867188 C 51.210938 26.636719 51.230469 26.414062 51.296875 26.195312 C 51.359375 25.976562 51.464844 25.777344 51.609375 25.601562 C 51.753906 25.421875 51.925781 25.28125 52.125 25.171875 C 52.328125 25.0625 52.542969 24.996094 52.769531 24.972656 C 52.996094 24.949219 53.21875 24.96875 53.4375 25.035156 C 53.65625 25.097656 53.855469 25.203125 54.035156 25.347656 C 54.210938 25.492188 54.355469 25.664062 54.464844 25.863281 C 54.574219 26.066406 54.640625 26.28125 54.664062 26.507812 C 54.6875 26.734375 54.664062 26.957031 54.601562 27.175781 C 54.535156 27.394531 54.429688 27.59375 54.285156 27.773438 C 54.144531 27.949219 53.96875 28.09375 53.769531 28.203125 C 53.570312 28.3125 53.355469 28.375 53.128906 28.402344 C 52.898438 28.425781 52.675781 28.402344 52.457031 28.339844 Z M 52.457031 28.339844 " fill-opacity="1" fill-rule="nonzero"/></g></g></g><g clip-path="url(#e63614317d)"><g clip-path="url(#cd1d109e3e)"><g clip-path="url(#628bb795be)"><path fill="#043044" d="M 52.609375 27.828125 C 52.457031 27.785156 52.320312 27.710938 52.195312 27.613281 C 52.074219 27.511719 51.976562 27.394531 51.898438 27.253906 C 51.824219 27.117188 51.777344 26.96875 51.761719 26.808594 C 51.746094 26.652344 51.757812 26.5 51.804688 26.347656 C 51.847656 26.195312 51.921875 26.058594 52.023438 25.933594 C 52.121094 25.8125 52.242188 25.714844 52.378906 25.636719 C 52.519531 25.5625 52.667969 25.515625 52.824219 25.5 C 52.980469 25.484375 53.136719 25.496094 53.289062 25.542969 C 53.4375 25.585938 53.578125 25.660156 53.699219 25.757812 C 53.820312 25.859375 53.921875 25.980469 53.996094 26.117188 C 54.070312 26.257812 54.117188 26.40625 54.132812 26.5625 C 54.152344 26.71875 54.136719 26.875 54.089844 27.027344 C 54.046875 27.175781 53.972656 27.3125 53.875 27.4375 C 53.773438 27.558594 53.65625 27.660156 53.515625 27.734375 C 53.378906 27.808594 53.230469 27.855469 53.070312 27.871094 C 52.914062 27.890625 52.761719 27.875 52.609375 27.828125 Z M 52.609375 27.828125 " fill-opacity="1" fill-rule="nonzero"/></g></g></g><g clip-path="url(#d9b9ca9175)"><g clip-path="url(#77e21ac9e4)"><g clip-path="url(#5dcf33cfe3)"><path fill="#ffffff" d="M 32.9375 59.378906 C 32.714844 59.3125 32.519531 59.210938 32.339844 59.066406 C 32.164062 58.921875 32.019531 58.75 31.910156 58.546875 C 31.800781 58.347656 31.734375 58.132812 31.710938 57.90625 C 31.6875 57.679688 31.707031 57.457031 31.773438 57.234375 C 31.839844 57.015625 31.941406 56.820312 32.085938 56.640625 C 32.230469 56.464844 32.402344 56.320312 32.605469 56.210938 C 32.804688 56.101562 33.019531 56.035156 33.246094 56.011719 C 33.472656 55.988281 33.699219 56.007812 33.917969 56.074219 C 34.136719 56.140625 34.335938 56.242188 34.511719 56.386719 C 34.691406 56.53125 34.832031 56.703125 34.941406 56.90625 C 35.050781 57.105469 35.117188 57.320312 35.140625 57.546875 C 35.164062 57.773438 35.144531 57.996094 35.078125 58.21875 C 35.015625 58.4375 34.910156 58.632812 34.765625 58.8125 C 34.621094 58.988281 34.449219 59.132812 34.246094 59.242188 C 34.046875 59.351562 33.832031 59.417969 33.605469 59.441406 C 33.378906 59.464844 33.15625 59.445312 32.9375 59.378906 Z M 32.9375 59.378906 " fill-opacity="1" fill-rule="nonzero"/></g></g></g><g clip-path="url(#9e5288c5d7)"><g clip-path="url(#ff356d640f)"><g clip-path="url(#8e28e23df4)"><path fill="#043044" d="M 33.085938 58.871094 C 32.933594 58.824219 32.796875 58.753906 32.675781 58.652344 C 32.550781 58.554688 32.453125 58.433594 32.378906 58.296875 C 32.300781 58.15625 32.257812 58.007812 32.238281 57.851562 C 32.222656 57.691406 32.238281 57.539062 32.28125 57.386719 C 32.328125 57.234375 32.398438 57.097656 32.5 56.976562 C 32.597656 56.851562 32.71875 56.753906 32.859375 56.679688 C 32.996094 56.601562 33.144531 56.558594 33.300781 56.539062 C 33.460938 56.523438 33.613281 56.539062 33.765625 56.582031 C 33.917969 56.628906 34.054688 56.699219 34.175781 56.800781 C 34.300781 56.898438 34.398438 57.019531 34.476562 57.15625 C 34.550781 57.296875 34.597656 57.445312 34.613281 57.601562 C 34.628906 57.761719 34.613281 57.914062 34.570312 58.066406 C 34.523438 58.21875 34.453125 58.355469 34.351562 58.476562 C 34.253906 58.601562 34.132812 58.699219 33.996094 58.773438 C 33.855469 58.851562 33.707031 58.894531 33.550781 58.914062 C 33.394531 58.929688 33.238281 58.914062 33.085938 58.871094 Z M 33.085938 58.871094 " fill-opacity="1" fill-rule="nonzero"/></g></g></g><g clip-path="url(#43ed7a7746)"><g clip-path="url(#497ad2cade)"><g clip-path="url(#bee4aaf3e2)"><path fill="#ffffff" d="M 33.785156 22.796875 C 33.5625 22.730469 33.367188 22.625 33.1875 22.480469 C 33.011719 22.339844 32.867188 22.164062 32.757812 21.964844 C 32.648438 21.765625 32.582031 21.550781 32.558594 21.324219 C 32.535156 21.09375 32.554688 20.871094 32.621094 20.652344 C 32.6875 20.433594 32.789062 20.234375 32.933594 20.058594 C 33.078125 19.878906 33.25 19.738281 33.453125 19.628906 C 33.652344 19.519531 33.867188 19.453125 34.09375 19.429688 C 34.320312 19.40625 34.546875 19.425781 34.765625 19.492188 C 34.984375 19.554688 35.183594 19.660156 35.359375 19.804688 C 35.539062 19.949219 35.679688 20.121094 35.789062 20.320312 C 35.898438 20.523438 35.964844 20.738281 35.988281 20.964844 C 36.011719 21.191406 35.992188 21.414062 35.925781 21.632812 C 35.863281 21.851562 35.757812 22.050781 35.613281 22.230469 C 35.46875 22.40625 35.296875 22.550781 35.09375 22.660156 C 34.894531 22.765625 34.679688 22.832031 34.453125 22.859375 C 34.226562 22.882812 34.003906 22.859375 33.785156 22.796875 Z M 33.785156 22.796875 " fill-opacity="1" fill-rule="nonzero"/></g></g></g><g clip-path="url(#aef50b633f)"><g clip-path="url(#975bf3e91f)"><g clip-path="url(#b61198916b)"><path fill="#043044" d="M 33.933594 22.285156 C 33.78125 22.242188 33.644531 22.167969 33.523438 22.070312 C 33.398438 21.96875 33.300781 21.851562 33.226562 21.710938 C 33.148438 21.574219 33.105469 21.425781 33.085938 21.265625 C 33.070312 21.109375 33.085938 20.957031 33.128906 20.804688 C 33.175781 20.652344 33.246094 20.515625 33.347656 20.390625 C 33.445312 20.269531 33.566406 20.171875 33.707031 20.09375 C 33.84375 20.019531 33.992188 19.972656 34.148438 19.957031 C 34.308594 19.941406 34.460938 19.953125 34.613281 20 C 34.765625 20.042969 34.902344 20.117188 35.023438 20.214844 C 35.148438 20.316406 35.246094 20.433594 35.324219 20.574219 C 35.398438 20.714844 35.445312 20.863281 35.460938 21.019531 C 35.476562 21.175781 35.460938 21.332031 35.417969 21.484375 C 35.371094 21.632812 35.300781 21.769531 35.199219 21.894531 C 35.101562 22.015625 34.980469 22.117188 34.84375 22.191406 C 34.703125 22.265625 34.554688 22.3125 34.398438 22.328125 C 34.242188 22.347656 34.085938 22.332031 33.933594 22.285156 Z M 33.933594 22.285156 " fill-opacity="1" fill-rule="nonzero"/></g></g></g><g clip-path="url(#3504ed6656)"><g clip-path="url(#2655fbad9f)"><g clip-path="url(#50567135c5)"><path fill="#ffffff" d="M 28.777344 26.109375 L 23.0625 45.363281 L 21.140625 44.792969 L 26.859375 25.539062 Z M 28.777344 26.109375 " fill-opacity="1" fill-rule="evenodd"/></g></g></g><g clip-path="url(#0015670ce6)"><g clip-path="url(#e4ef3d85eb)"><g clip-path="url(#813fa6a90a)"><path fill="#ffffff" d="M 21.613281 46.730469 C 21.390625 46.667969 21.195312 46.5625 21.015625 46.417969 C 20.839844 46.273438 20.695312 46.101562 20.585938 45.898438 C 20.476562 45.699219 20.410156 45.484375 20.386719 45.257812 C 20.363281 45.03125 20.382812 44.808594 20.449219 44.589844 C 20.515625 44.367188 20.621094 44.171875 20.761719 43.992188 C 20.90625 43.816406 21.078125 43.671875 21.28125 43.5625 C 21.480469 43.453125 21.695312 43.386719 21.921875 43.363281 C 22.152344 43.339844 22.375 43.359375 22.59375 43.425781 C 22.8125 43.492188 23.011719 43.59375 23.1875 43.738281 C 23.367188 43.882812 23.507812 44.054688 23.617188 44.257812 C 23.726562 44.457031 23.792969 44.671875 23.816406 44.898438 C 23.839844 45.125 23.820312 45.351562 23.753906 45.570312 C 23.691406 45.789062 23.585938 45.988281 23.441406 46.164062 C 23.296875 46.34375 23.125 46.484375 22.925781 46.59375 C 22.722656 46.703125 22.507812 46.769531 22.28125 46.792969 C 22.054688 46.816406 21.832031 46.796875 21.613281 46.730469 Z M 21.613281 46.730469 " fill-opacity="1" fill-rule="nonzero"/><path fill="#043044" d="M 21.761719 46.222656 C 21.609375 46.175781 21.472656 46.105469 21.351562 46.003906 C 21.226562 45.90625 21.128906 45.785156 21.054688 45.648438 C 20.976562 45.507812 20.933594 45.359375 20.914062 45.203125 C 20.898438 45.046875 20.914062 44.890625 20.957031 44.738281 C 21.003906 44.585938 21.074219 44.449219 21.175781 44.328125 C 21.273438 44.203125 21.394531 44.105469 21.535156 44.03125 C 21.671875 43.953125 21.820312 43.910156 21.976562 43.890625 C 22.136719 43.875 22.289062 43.890625 22.441406 43.933594 C 22.59375 43.980469 22.730469 44.050781 22.851562 44.152344 C 22.976562 44.25 23.074219 44.371094 23.152344 44.511719 C 23.226562 44.648438 23.273438 44.796875 23.289062 44.953125 C 23.304688 45.113281 23.289062 45.265625 23.246094 45.417969 C 23.199219 45.570312 23.128906 45.707031 23.027344 45.828125 C 22.929688 45.953125 22.808594 46.050781 22.671875 46.128906 C 22.53125 46.203125 22.382812 46.25 22.226562 46.265625 C 22.070312 46.28125 21.914062 46.265625 21.761719 46.222656 Z M 21.761719 46.222656 " fill-opacity="1" fill-rule="nonzero"/></g></g></g><g clip-path="url(#e4383d6fd2)"><path fill="#ffffff" d="M 16.8125 57.511719 C 16.34375 57.480469 16.121094 57.273438 16.101562 57.117188 C 15.941406 56.488281 16.027344 55.796875 16.335938 55.226562 C 16.835938 54.3125 17.832031 53.777344 18.453125 52.941406 C 18.648438 52.683594 18.808594 52.359375 18.714844 52.050781 C 18.640625 51.820312 18.4375 51.652344 18.21875 51.542969 C 17.714844 51.28125 17.09375 51.257812 16.570312 51.480469 C 16.046875 51.703125 15.632812 52.164062 15.464844 52.707031 C 15.316406 53.304688 13.320312 52.226562 13.554688 51.644531 C 14.152344 50.347656 14.898438 49.496094 16.253906 49.042969 C 17.605469 48.589844 19.234375 48.878906 20.21875 49.910156 C 21.207031 50.9375 21.390625 52.707031 20.496094 53.820312 C 20.238281 54.140625 19.910156 54.398438 19.636719 54.703125 C 18.996094 55.410156 18.769531 56.058594 18.785156 57.015625 C 18.8125 57.519531 17.871094 57.582031 16.8125 57.511719 Z M 16.8125 57.511719 " fill-opacity="1" fill-rule="nonzero"/></g><g clip-path="url(#b6c447e966)"><path fill="#ffffff" d="M 18.734375 58.222656 C 19.113281 58.5625 18.714844 59.027344 18.324219 59.125 C 18.117188 59.175781 17.898438 59.167969 17.6875 59.175781 C 17.449219 59.183594 17.207031 59.207031 16.96875 59.1875 C 16.730469 59.164062 16.484375 59.085938 16.316406 58.917969 C 16.144531 58.75 16.058594 58.480469 16.15625 58.261719 C 16.242188 58.074219 16.445312 57.957031 16.648438 57.917969 C 16.851562 57.882812 17.0625 57.914062 17.269531 57.941406 C 17.636719 57.996094 18.433594 57.960938 18.734375 58.222656 Z M 16.25 59.742188 C 16.613281 59.804688 17.011719 59.789062 17.382812 59.773438 C 17.75 59.753906 18.164062 59.75 18.515625 59.628906 C 18.589844 59.605469 18.574219 59.496094 18.496094 59.492188 C 18.128906 59.480469 17.75 59.554688 17.382812 59.574219 C 17.011719 59.597656 16.632812 59.582031 16.265625 59.613281 C 16.199219 59.621094 16.171875 59.730469 16.25 59.742188 Z M 16.25 59.742188 " fill-opacity="1" fill-rule="nonzero"/></g><g clip-path="url(#0031b7b7a4)"><path fill="#ffffff" d="M 68.34375 11.585938 C 68.277344 11.601562 68.15625 11.632812 68.082031 11.648438 C 67.886719 11.691406 67.855469 11.71875 67.792969 11.847656 C 67.746094 11.949219 67.738281 11.996094 67.738281 12.230469 C 67.738281 12.550781 67.785156 12.714844 68.003906 13.160156 C 68.050781 13.257812 68.054688 13.285156 68.035156 13.320312 C 68.019531 13.34375 68.007812 13.390625 68.007812 13.417969 C 68.007812 13.46875 67.992188 13.476562 67.902344 13.488281 C 67.636719 13.527344 67.636719 13.527344 67.644531 13.621094 C 67.648438 13.667969 67.679688 13.816406 67.714844 13.957031 C 67.75 14.09375 67.796875 14.308594 67.816406 14.429688 C 67.839844 14.554688 67.871094 14.691406 67.886719 14.734375 C 67.925781 14.824219 67.976562 15.042969 68.007812 15.234375 C 68.019531 15.308594 68.035156 15.375 68.046875 15.390625 C 68.054688 15.40625 68.070312 15.460938 68.078125 15.519531 C 68.101562 15.671875 68.15625 15.90625 68.167969 15.945312 C 68.175781 15.960938 68.1875 16.011719 68.195312 16.054688 C 68.238281 16.296875 68.269531 16.390625 68.335938 16.464844 C 68.375 16.507812 68.410156 16.566406 68.417969 16.585938 C 68.425781 16.609375 68.445312 16.695312 68.464844 16.785156 C 68.488281 16.871094 68.554688 17.042969 68.613281 17.167969 C 68.675781 17.292969 68.722656 17.414062 68.722656 17.4375 C 68.722656 17.460938 68.738281 17.507812 68.757812 17.542969 C 68.777344 17.578125 68.792969 17.640625 68.792969 17.679688 C 68.792969 17.785156 68.867188 17.980469 68.980469 18.167969 C 69.003906 18.203125 69.050781 18.285156 69.136719 18.445312 C 69.183594 18.527344 69.414062 18.871094 69.457031 18.914062 C 69.480469 18.9375 69.550781 19.035156 69.609375 19.128906 C 69.671875 19.21875 69.730469 19.300781 69.734375 19.308594 C 69.8125 19.375 69.84375 19.890625 69.78125 20.046875 C 69.703125 20.234375 69.679688 20.292969 69.597656 20.449219 C 69.554688 20.542969 69.492188 20.65625 69.46875 20.695312 C 69.441406 20.738281 69.414062 20.792969 69.402344 20.808594 C 69.398438 20.828125 69.367188 20.875 69.335938 20.914062 C 69.308594 20.949219 69.285156 20.988281 69.285156 20.996094 C 69.285156 21.019531 69.144531 21.214844 69.070312 21.296875 C 69.035156 21.339844 68.996094 21.390625 68.980469 21.414062 C 68.972656 21.4375 68.929688 21.492188 68.886719 21.535156 C 68.851562 21.574219 68.78125 21.65625 68.738281 21.714844 C 68.699219 21.765625 68.640625 21.835938 68.613281 21.867188 C 68.589844 21.890625 68.566406 21.929688 68.566406 21.945312 C 68.566406 21.964844 68.507812 22.054688 68.4375 22.148438 C 68.367188 22.246094 68.277344 22.367188 68.238281 22.421875 C 68.203125 22.480469 68.113281 22.613281 68.035156 22.71875 C 67.957031 22.828125 67.894531 22.921875 67.894531 22.929688 C 67.894531 22.9375 67.757812 23.144531 67.738281 23.164062 C 67.722656 23.179688 67.671875 23.261719 67.65625 23.296875 C 67.644531 23.316406 67.632812 23.335938 67.628906 23.34375 C 67.621094 23.351562 67.566406 23.429688 67.503906 23.523438 C 67.441406 23.613281 67.386719 23.695312 67.375 23.703125 C 67.371094 23.707031 67.34375 23.75 67.316406 23.792969 L 67.265625 23.875 L 67.539062 24.121094 C 67.691406 24.253906 67.867188 24.402344 67.929688 24.449219 C 68.070312 24.550781 68.171875 24.675781 68.167969 24.753906 C 68.167969 24.785156 68.152344 24.90625 68.128906 25.023438 C 68.109375 25.140625 68.097656 25.304688 68.097656 25.386719 C 68.113281 25.769531 68.101562 26.449219 68.074219 26.90625 C 68.058594 27.1875 68.046875 27.46875 68.046875 27.535156 C 68.046875 27.804688 68.097656 28.570312 68.128906 28.800781 C 68.148438 28.9375 68.175781 29.15625 68.1875 29.285156 C 68.199219 29.414062 68.21875 29.550781 68.230469 29.585938 C 68.242188 29.621094 68.253906 29.6875 68.253906 29.734375 C 68.253906 29.777344 68.261719 29.84375 68.277344 29.882812 C 68.304688 29.960938 68.339844 30.175781 68.367188 30.441406 C 68.417969 30.980469 68.484375 31.363281 68.53125 31.40625 C 68.539062 31.414062 68.546875 31.449219 68.546875 31.480469 C 68.546875 31.511719 68.570312 31.640625 68.601562 31.761719 C 68.664062 32.003906 68.691406 32.1875 68.722656 32.625 C 68.738281 32.78125 68.757812 32.933594 68.769531 32.972656 C 68.78125 33.007812 68.792969 33.09375 68.792969 33.160156 C 68.792969 33.230469 68.804688 33.324219 68.8125 33.371094 C 68.851562 33.5 68.886719 33.761719 68.972656 34.554688 C 68.980469 34.671875 69 34.78125 69.007812 34.800781 C 69.011719 34.820312 69.03125 34.894531 69.039062 34.96875 C 69.050781 35.042969 69.074219 35.183594 69.09375 35.28125 C 69.117188 35.382812 69.140625 35.589844 69.144531 35.746094 L 69.15625 36.03125 L 69.097656 36.046875 C 69.039062 36.0625 68.941406 36.171875 68.882812 36.277344 C 68.847656 36.34375 68.871094 36.433594 68.929688 36.457031 C 68.976562 36.472656 69.039062 36.609375 69.039062 36.699219 C 69.039062 36.726562 69.050781 36.753906 69.0625 36.761719 C 69.117188 36.796875 69.046875 36.984375 68.972656 37.003906 C 68.945312 37.011719 68.925781 37.035156 68.925781 37.058594 C 68.925781 37.101562 68.828125 37.140625 68.65625 37.167969 C 68.425781 37.203125 68.246094 37.285156 68.199219 37.378906 C 68.152344 37.46875 68.152344 37.632812 68.203125 37.675781 C 68.300781 37.761719 68.328125 37.765625 69.105469 37.792969 C 69.304688 37.800781 69.523438 37.730469 69.628906 37.628906 C 69.699219 37.5625 69.957031 37.210938 69.957031 37.179688 C 69.957031 37.167969 69.972656 37.148438 69.992188 37.132812 C 70.007812 37.117188 70.023438 37.085938 70.023438 37.0625 C 70.023438 37.039062 70.035156 37.019531 70.046875 37.019531 C 70.058594 37.019531 70.074219 36.996094 70.082031 36.964844 C 70.089844 36.933594 70.105469 36.90625 70.117188 36.90625 C 70.128906 36.90625 70.136719 36.894531 70.136719 36.875 C 70.136719 36.835938 70.335938 36.660156 70.382812 36.660156 C 70.402344 36.664062 70.441406 36.675781 70.472656 36.691406 C 70.554688 36.738281 70.550781 36.742188 70.882812 36.449219 C 71.054688 36.296875 71.125 36.207031 71.125 36.132812 C 71.125 36.09375 71 35.882812 70.957031 35.84375 C 70.941406 35.832031 70.90625 35.785156 70.878906 35.75 C 70.851562 35.707031 70.785156 35.625 70.730469 35.558594 C 70.65625 35.472656 70.628906 35.425781 70.628906 35.371094 C 70.628906 35.324219 70.597656 35.25 70.539062 35.164062 C 70.492188 35.089844 70.449219 35.011719 70.449219 34.992188 C 70.449219 34.972656 70.476562 34.921875 70.507812 34.882812 C 70.574219 34.792969 70.574219 34.777344 70.519531 34.632812 C 70.453125 34.445312 70.429688 34.394531 70.375 34.320312 C 70.332031 34.257812 70.324219 34.214844 70.308594 33.8125 C 70.289062 33.253906 70.285156 32.941406 70.304688 32.542969 C 70.316406 32.324219 70.3125 32.203125 70.296875 32.148438 C 70.28125 32.113281 70.265625 31.941406 70.257812 31.777344 C 70.246094 31.527344 70.234375 31.449219 70.191406 31.359375 C 70.160156 31.28125 70.136719 31.175781 70.125 31.035156 C 70.101562 30.71875 70.09375 29.398438 70.117188 29.382812 C 70.128906 29.375 70.136719 29.308594 70.136719 29.230469 C 70.136719 29.148438 70.152344 29.027344 70.167969 28.957031 C 70.199219 28.835938 70.230469 28.683594 70.296875 28.351562 C 70.3125 28.273438 70.328125 28.214844 70.335938 28.21875 C 70.355469 28.238281 70.429688 28.464844 70.429688 28.503906 C 70.429688 28.527344 70.441406 28.542969 70.449219 28.542969 C 70.464844 28.542969 70.472656 28.566406 70.472656 28.59375 C 70.472656 28.617188 70.488281 28.691406 70.507812 28.753906 C 70.601562 29.042969 70.59375 29.011719 70.652344 29.355469 C 70.660156 29.425781 70.679688 29.496094 70.6875 29.511719 C 70.699219 29.527344 70.714844 29.597656 70.722656 29.664062 C 70.734375 29.734375 70.753906 29.878906 70.777344 29.992188 C 70.796875 30.101562 70.820312 30.257812 70.832031 30.339844 C 70.84375 30.417969 70.859375 30.5 70.867188 30.519531 C 70.875 30.535156 70.890625 30.585938 70.902344 30.628906 C 70.910156 30.671875 70.949219 30.820312 70.988281 30.957031 C 71.03125 31.089844 71.066406 31.242188 71.070312 31.292969 C 71.078125 31.339844 71.09375 31.390625 71.101562 31.40625 C 71.113281 31.421875 71.132812 31.496094 71.144531 31.574219 C 71.160156 31.699219 71.191406 31.890625 71.253906 32.265625 C 71.265625 32.324219 71.285156 32.449219 71.300781 32.546875 C 71.316406 32.644531 71.339844 32.757812 71.351562 32.792969 C 71.425781 33.046875 71.480469 33.71875 71.496094 34.582031 C 71.507812 35.152344 71.503906 35.371094 71.480469 35.472656 C 71.453125 35.613281 71.457031 35.628906 71.539062 35.824219 C 71.558594 35.863281 71.570312 35.90625 71.570312 35.917969 C 71.570312 35.933594 71.582031 35.945312 71.59375 35.945312 C 71.609375 35.945312 71.617188 35.957031 71.617188 35.976562 C 71.617188 35.992188 71.628906 36.023438 71.644531 36.039062 C 71.691406 36.085938 71.75 36.207031 71.75 36.246094 C 71.75 36.265625 71.738281 36.316406 71.71875 36.355469 C 71.703125 36.394531 71.671875 36.472656 71.652344 36.527344 C 71.628906 36.582031 71.601562 36.652344 71.589844 36.683594 C 71.535156 36.824219 71.429688 37.007812 71.304688 37.183594 C 71.136719 37.417969 71.078125 37.5625 71.078125 37.746094 C 71.082031 37.964844 71.09375 37.972656 71.445312 37.980469 C 71.769531 37.988281 72.265625 37.9375 72.402344 37.878906 C 72.449219 37.859375 72.5 37.820312 72.519531 37.785156 C 72.5625 37.714844 72.609375 37.503906 72.660156 37.164062 C 72.683594 37.027344 72.730469 36.835938 72.765625 36.730469 C 72.820312 36.5625 72.824219 36.519531 72.8125 36.367188 C 72.804688 36.257812 72.808594 36.183594 72.820312 36.164062 C 72.835938 36.148438 72.863281 36.0625 72.886719 35.972656 C 72.925781 35.824219 72.925781 35.792969 72.894531 35.546875 C 72.859375 35.238281 72.859375 35.03125 72.894531 34.644531 C 72.90625 34.488281 72.917969 33.867188 72.917969 33.230469 C 72.917969 32.300781 72.910156 32.070312 72.882812 31.964844 C 72.867188 31.898438 72.851562 31.808594 72.851562 31.777344 C 72.851562 31.738281 72.835938 31.675781 72.816406 31.632812 C 72.796875 31.585938 72.78125 31.519531 72.78125 31.476562 C 72.78125 31.390625 72.722656 31.109375 72.691406 31.050781 C 72.679688 31.027344 72.671875 30.988281 72.671875 30.957031 C 72.671875 30.910156 72.613281 30.773438 72.582031 30.742188 C 72.574219 30.734375 72.554688 30.679688 72.539062 30.617188 C 72.519531 30.535156 72.519531 30.488281 72.535156 30.441406 C 72.566406 30.355469 72.5625 30.226562 72.523438 30.160156 C 72.507812 30.128906 72.492188 30.050781 72.492188 29.988281 C 72.492188 29.921875 72.46875 29.820312 72.433594 29.730469 C 72.375 29.589844 72.375 29.582031 72.375 28.960938 C 72.378906 28.613281 72.390625 28.210938 72.402344 28.0625 C 72.417969 27.914062 72.425781 27.574219 72.417969 27.304688 L 72.414062 26.820312 L 72.609375 26.820312 L 72.597656 26.632812 C 72.535156 25.695312 72.53125 25.644531 72.433594 25.339844 C 72.375 25.15625 72.355469 25.101562 72.289062 24.945312 C 72.1875 24.714844 72.183594 24.636719 72.230469 23.972656 C 72.28125 23.285156 72.3125 23.234375 72.996094 22.539062 L 73.292969 22.242188 L 73.308594 22.417969 C 73.320312 22.582031 73.335938 22.644531 73.402344 22.835938 C 73.417969 22.878906 73.433594 22.964844 73.433594 23.023438 C 73.433594 23.082031 73.445312 23.164062 73.457031 23.207031 C 73.46875 23.25 73.480469 23.386719 73.488281 23.511719 C 73.492188 23.632812 73.507812 23.835938 73.523438 23.960938 C 73.5625 24.351562 73.535156 25.738281 73.476562 26.191406 C 73.464844 26.28125 73.449219 26.449219 73.441406 26.554688 C 73.429688 26.746094 73.429688 26.753906 73.476562 26.765625 C 73.5 26.773438 73.523438 26.785156 73.523438 26.796875 C 73.523438 26.808594 73.539062 26.820312 73.554688 26.820312 C 73.574219 26.820312 73.589844 26.835938 73.589844 26.855469 C 73.589844 26.941406 73.539062 27.066406 73.503906 27.082031 C 73.484375 27.089844 73.433594 27.128906 73.394531 27.171875 C 73.355469 27.210938 73.3125 27.246094 73.300781 27.246094 C 73.160156 27.246094 73.195312 27.671875 73.335938 27.734375 C 73.378906 27.753906 73.386719 27.777344 73.386719 27.855469 C 73.386719 27.945312 73.429688 28.035156 73.488281 28.082031 C 73.5 28.089844 73.566406 28.09375 73.632812 28.085938 C 73.726562 28.078125 73.773438 28.082031 73.804688 28.105469 C 73.859375 28.148438 73.933594 28.148438 73.972656 28.109375 C 73.988281 28.085938 74.035156 28.074219 74.085938 28.074219 C 74.136719 28.074219 74.191406 28.058594 74.207031 28.039062 C 74.230469 28.023438 74.269531 28.007812 74.304688 28.007812 C 74.347656 28.003906 74.382812 27.980469 74.441406 27.902344 C 74.515625 27.808594 74.519531 27.78125 74.53125 27.621094 C 74.535156 27.523438 74.523438 27.402344 74.515625 27.351562 C 74.5 27.296875 74.496094 27.199219 74.503906 27.125 C 74.515625 27.015625 74.523438 26.996094 74.5625 26.996094 C 74.589844 26.996094 74.632812 26.992188 74.660156 26.984375 L 74.710938 26.972656 L 74.710938 26.269531 C 74.710938 25.886719 74.71875 25.414062 74.734375 25.214844 C 74.746094 25.019531 74.761719 24.734375 74.765625 24.585938 C 74.769531 24.4375 74.777344 24.316406 74.777344 24.316406 C 74.789062 24.316406 74.800781 24.066406 74.808594 23.800781 C 74.8125 23.582031 74.824219 23.492188 74.851562 23.433594 C 74.894531 23.351562 74.90625 23.046875 74.871094 22.929688 C 74.851562 22.867188 74.832031 22.777344 74.78125 22.492188 C 74.773438 22.433594 74.738281 22.332031 74.710938 22.257812 C 74.667969 22.148438 74.664062 22.113281 74.683594 22.042969 C 74.714844 21.949219 74.730469 21.855469 74.753906 21.667969 C 74.769531 21.554688 74.765625 21.503906 74.730469 21.386719 C 74.691406 21.261719 74.6875 21.230469 74.714844 21.074219 C 74.734375 20.917969 74.734375 20.886719 74.691406 20.75 C 74.628906 20.542969 74.582031 20.304688 74.550781 20.039062 C 74.519531 19.769531 74.453125 19.652344 74.289062 19.574219 C 74.023438 19.445312 73.605469 19.144531 73.578125 19.058594 C 73.570312 19.039062 73.539062 19.007812 73.503906 18.996094 C 73.382812 18.953125 73.277344 18.800781 73.171875 18.515625 C 73.152344 18.453125 73.117188 18.402344 73.101562 18.394531 C 73.054688 18.375 72.917969 18.125 72.917969 18.050781 C 72.917969 18.015625 72.933594 17.929688 72.949219 17.855469 C 72.96875 17.785156 72.984375 17.671875 72.984375 17.601562 C 72.984375 17.496094 72.992188 17.46875 73.035156 17.429688 C 73.074219 17.398438 73.09375 17.351562 73.101562 17.265625 C 73.117188 17.132812 73.09375 16.894531 73.054688 16.824219 C 73.039062 16.796875 73.03125 16.664062 73.03125 16.53125 C 73.03125 16.25 72.996094 16.132812 72.871094 15.945312 C 72.738281 15.738281 72.6875 15.675781 72.65625 15.675781 C 72.636719 15.675781 72.578125 15.640625 72.527344 15.59375 C 72.429688 15.511719 72.125 15.390625 72.082031 15.417969 C 72.070312 15.429688 71.976562 15.433594 71.875 15.4375 C 71.707031 15.4375 71.6875 15.445312 71.597656 15.511719 C 71.542969 15.550781 71.457031 15.597656 71.410156 15.609375 C 71.355469 15.625 71.277344 15.675781 71.199219 15.75 C 71.097656 15.851562 71.078125 15.882812 71.078125 15.949219 C 71.078125 15.992188 71.066406 16.035156 71.050781 16.039062 C 71.015625 16.050781 70.9375 16.203125 70.886719 16.34375 C 70.847656 16.464844 70.839844 16.777344 70.875 17.007812 C 70.902344 17.1875 71.019531 17.523438 71.0625 17.550781 C 71.101562 17.574219 71.257812 17.832031 71.257812 17.875 C 71.257812 17.90625 71.246094 17.910156 71.179688 17.890625 C 71.0625 17.859375 70.941406 17.902344 70.875 17.992188 L 70.824219 18.066406 L 70.675781 17.976562 C 70.511719 17.875 70.496094 17.859375 70.496094 17.792969 C 70.496094 17.769531 70.445312 17.6875 70.386719 17.613281 C 70.328125 17.539062 70.273438 17.460938 70.265625 17.441406 C 70.257812 17.417969 70.214844 17.347656 70.175781 17.28125 C 70.132812 17.214844 70.089844 17.140625 70.082031 17.113281 C 70.074219 17.085938 70.054688 17.066406 70.046875 17.066406 C 70.035156 17.066406 70.023438 17.050781 70.023438 17.03125 C 70.023438 17.011719 69.996094 16.953125 69.964844 16.902344 C 69.886719 16.78125 69.84375 16.691406 69.84375 16.632812 C 69.84375 16.582031 69.746094 16.382812 69.636719 16.210938 C 69.566406 16.097656 69.519531 15.992188 69.445312 15.777344 C 69.433594 15.738281 69.40625 15.632812 69.386719 15.539062 C 69.367188 15.449219 69.328125 15.320312 69.296875 15.261719 C 69.234375 15.125 69.164062 14.949219 69.101562 14.765625 C 69.078125 14.691406 69.042969 14.597656 69.027344 14.554688 C 68.988281 14.4375 68.925781 14.195312 68.882812 13.980469 C 68.867188 13.894531 68.804688 13.746094 68.769531 13.722656 C 68.761719 13.71875 68.722656 13.539062 68.683594 13.332031 C 68.640625 13.121094 68.601562 12.921875 68.59375 12.890625 C 68.570312 12.816406 68.707031 12.453125 68.8125 12.304688 C 68.882812 12.210938 68.882812 12.195312 68.871094 12.074219 C 68.84375 11.863281 68.792969 11.730469 68.699219 11.632812 C 68.601562 11.539062 68.550781 11.53125 68.34375 11.585938 Z M 69.035156 36.269531 C 69.027344 36.351562 68.96875 36.417969 68.933594 36.386719 C 68.914062 36.367188 68.992188 36.191406 69.019531 36.191406 C 69.03125 36.191406 69.039062 36.226562 69.035156 36.269531 Z M 69.035156 36.269531 " fill-opacity="1" fill-rule="nonzero"/></g></svg>