<svg xmlns="http://www.w3.org/2000/svg" xmlns:xlink="http://www.w3.org/1999/xlink" width="116" zoomAndPan="magnify" viewBox="0 0 87 86.999996" height="116" preserveAspectRatio="xMidYMid meet" version="1.0"><defs><clipPath id="eb31df7e05"><path d="M 54.140625 20.367188 L 85.199219 20.367188 L 85.199219 66.503906 L 54.140625 66.503906 Z M 54.140625 20.367188 " clip-rule="nonzero"/></clipPath><clipPath id="b3dbba3a73"><path d="M 1.949219 20 L 34 20 L 34 67 L 1.949219 67 Z M 1.949219 20 " clip-rule="nonzero"/></clipPath><clipPath id="975a00a24b"><path d="M 6.1875 46.960938 L 81 46.960938 L 81 70.289062 L 6.1875 70.289062 Z M 6.1875 46.960938 " clip-rule="nonzero"/></clipPath><clipPath id="d3410b6135"><path d="M 6 16.539062 L 81 16.539062 L 81 44 L 6 44 Z M 6 16.539062 " clip-rule="nonzero"/></clipPath></defs><g clip-path="url(#eb31df7e05)"><path fill="#043044" d="M 54.15625 43.414062 L 85.292969 20.511719 L 85.292969 66.3125 Z M 54.15625 43.414062 " fill-opacity="1" fill-rule="nonzero"/></g><g clip-path="url(#b3dbba3a73)"><path fill="#043044" d="M 1.957031 20.511719 L 33.09375 43.414062 L 1.957031 66.3125 Z M 1.957031 20.511719 " fill-opacity="1" fill-rule="nonzero"/></g><g clip-path="url(#975a00a24b)"><path fill="#043044" d="M 6.285156 70.289062 L 37.960938 46.992188 L 43.625 51.15625 L 49.289062 46.992188 L 80.964844 70.289062 L 6.285156 70.289062 " fill-opacity="1" fill-rule="nonzero"/></g><g clip-path="url(#d3410b6135)"><path fill="#043044" d="M 6.285156 16.539062 L 80.964844 16.539062 L 43.625 44 Z M 6.285156 16.539062 " fill-opacity="1" fill-rule="nonzero"/></g></svg>