<svg xmlns="http://www.w3.org/2000/svg" xmlns:xlink="http://www.w3.org/1999/xlink" width="116" zoomAndPan="magnify" viewBox="0 0 87 86.999996" height="116" preserveAspectRatio="xMidYMid meet" version="1.0"><defs><clipPath id="7d8c33dbfa"><path d="M 3.160156 3 L 85.660156 3 L 85.660156 82.484375 L 3.160156 82.484375 Z M 3.160156 3 " clip-rule="nonzero"/></clipPath><clipPath id="c60ae73b07"><path d="M 3.160156 51 L 30 51 L 30 76 L 3.160156 76 Z M 3.160156 51 " clip-rule="nonzero"/></clipPath></defs><g clip-path="url(#7d8c33dbfa)"><path fill="#043044" d="M 45.546875 82.488281 C 43.644531 82.488281 41.714844 82.347656 39.820312 82.074219 C 33.878906 81.21875 28.363281 79.117188 23.417969 75.828125 C 23.417969 75.828125 23.417969 75.828125 23.414062 75.828125 C 22.085938 74.941406 20.796875 73.96875 19.578125 72.925781 L 5 75.347656 C 4.445312 75.441406 3.882812 75.210938 3.546875 74.757812 C 3.210938 74.300781 3.164062 73.695312 3.417969 73.191406 L 9.832031 60.503906 C 7.050781 55.007812 5.585938 48.882812 5.585938 42.730469 C 5.585938 40.84375 5.722656 38.9375 5.992188 37.058594 C 7.359375 27.558594 12.140625 18.878906 19.457031 12.617188 C 26.699219 6.414062 35.914062 3 45.398438 3 C 47.304688 3 49.230469 3.136719 51.128906 3.410156 L 51.144531 3.414062 C 51.964844 3.527344 52.535156 4.289062 52.417969 5.105469 C 52.304688 5.925781 51.542969 6.5 50.726562 6.382812 L 50.707031 6.378906 C 48.945312 6.125 47.160156 6 45.398438 6 C 27.210938 6 11.546875 19.535156 8.960938 37.484375 C 8.710938 39.222656 8.582031 40.988281 8.582031 42.730469 C 8.582031 48.652344 10.054688 54.554688 12.839844 59.792969 C 13.066406 60.222656 13.074219 60.738281 12.855469 61.171875 L 7.429688 71.90625 L 19.785156 69.847656 C 20.230469 69.773438 20.6875 69.90625 21.027344 70.207031 C 22.300781 71.339844 23.664062 72.390625 25.078125 73.332031 C 29.648438 76.375 34.753906 78.316406 40.246094 79.105469 C 42.003906 79.359375 43.785156 79.488281 45.546875 79.488281 C 63.734375 79.488281 79.402344 65.953125 81.988281 48 C 82.238281 46.265625 82.363281 44.503906 82.363281 42.765625 C 82.363281 30.621094 76.316406 19.257812 66.191406 12.371094 C 65.507812 11.90625 65.328125 10.972656 65.796875 10.289062 C 66.261719 9.605469 67.195312 9.425781 67.878906 9.894531 C 78.828125 17.335938 85.363281 29.625 85.363281 42.765625 C 85.363281 44.648438 85.226562 46.554688 84.957031 48.429688 C 83.585938 57.925781 78.804688 66.605469 71.488281 72.871094 C 64.246094 79.070312 55.03125 82.488281 45.546875 82.488281 Z M 58.085938 65.664062 C 55.347656 65.664062 51.703125 64.664062 46.269531 62.421875 C 39.273438 59.535156 32.335938 53.496094 26.734375 45.421875 C 26.640625 45.285156 26.574219 45.1875 26.535156 45.140625 C 26.53125 45.132812 26.523438 45.121094 26.519531 45.117188 L 26.472656 45.050781 C 24.679688 42.617188 21.671875 37.78125 21.671875 32.703125 C 21.671875 26.757812 24.65625 23.738281 25.929688 22.449219 L 26.027344 22.351562 C 27.332031 21.023438 28.785156 20.351562 30.347656 20.351562 C 35.605469 20.351562 39.558594 27.980469 39.558594 32.925781 C 39.558594 34.628906 39.105469 36.050781 38.246094 37.039062 C 37.988281 37.332031 37.742188 37.59375 37.5 37.847656 C 37.191406 38.171875 36.902344 38.480469 36.609375 38.839844 C 36.601562 38.851562 36.59375 38.859375 36.585938 38.871094 L 36.554688 38.902344 C 36.4375 39.042969 36.261719 39.25 36.210938 39.351562 C 36.21875 39.378906 36.238281 39.433594 36.289062 39.519531 C 36.808594 40.394531 37.9375 42.179688 39.515625 44.058594 C 40.371094 44.988281 41.296875 45.910156 42.289062 46.789062 C 43.410156 47.78125 44.484375 48.648438 45.511719 49.410156 C 47.707031 50.875 49.441406 51.574219 50.4375 51.972656 C 50.574219 52.027344 50.695312 52.078125 50.800781 52.121094 C 50.96875 52.191406 51.152344 52.230469 51.324219 52.230469 C 51.453125 52.230469 51.695312 52.207031 51.839844 52.050781 C 52.511719 51.328125 53.375 50.121094 54.289062 48.84375 L 54.710938 48.25 C 55.640625 46.945312 56.78125 46.632812 57.570312 46.601562 C 57.617188 46.601562 57.667969 46.601562 57.714844 46.601562 C 58.1875 46.601562 58.683594 46.695312 59.191406 46.882812 C 68 49.933594 69.847656 53.804688 69.847656 56.515625 C 69.847656 60.816406 65.148438 64.398438 60.601562 65.375 C 59.941406 65.515625 59.152344 65.664062 58.085938 65.664062 Z M 28.929688 43.332031 C 28.992188 43.414062 29.070312 43.527344 29.199219 43.710938 C 34.472656 51.320312 40.941406 56.980469 47.414062 59.648438 C 52.398438 61.707031 55.792969 62.664062 58.085938 62.664062 C 58.863281 62.664062 59.445312 62.554688 59.976562 62.441406 C 63.292969 61.730469 66.851562 59.175781 66.851562 56.515625 C 66.851562 54.058594 63.777344 51.644531 58.195312 49.710938 C 58.179688 49.707031 58.167969 49.703125 58.15625 49.699219 C 57.984375 49.632812 57.832031 49.601562 57.710938 49.601562 L 57.6875 49.601562 C 57.609375 49.601562 57.425781 49.609375 57.152344 49.996094 L 56.730469 50.585938 C 55.757812 51.945312 54.839844 53.230469 54.027344 54.101562 C 53.992188 54.136719 53.960938 54.171875 53.925781 54.207031 C 54.222656 54.328125 54.496094 54.4375 54.738281 54.535156 C 54.933594 54.617188 55.113281 54.6875 55.265625 54.75 C 56.03125 55.070312 56.394531 55.945312 56.078125 56.710938 C 55.761719 57.476562 54.882812 57.839844 54.117188 57.519531 C 53.972656 57.460938 53.804688 57.394531 53.617188 57.320312 C 51.878906 56.617188 48.269531 55.167969 43.789062 51.863281 C 42.6875 51.125 41.488281 50.21875 40.226562 49.101562 C 39.09375 48.097656 38.082031 47.019531 37.195312 45.964844 C 34.140625 42.625 31.929688 39.21875 30.734375 37.210938 C 30.3125 36.5 30.546875 35.578125 31.257812 35.15625 C 31.972656 34.734375 32.890625 34.96875 33.3125 35.679688 C 33.558594 36.089844 33.84375 36.558594 34.175781 37.074219 C 34.207031 37.035156 34.242188 36.992188 34.273438 36.957031 L 34.292969 36.933594 C 34.652344 36.492188 34.992188 36.132812 35.324219 35.785156 C 35.550781 35.542969 35.765625 35.316406 35.984375 35.066406 C 36.355469 34.640625 36.558594 33.878906 36.558594 32.925781 C 36.558594 31.003906 35.734375 28.484375 34.460938 26.507812 C 33.1875 24.53125 31.648438 23.347656 30.347656 23.347656 C 29.621094 23.347656 28.886719 23.722656 28.164062 24.453125 L 28.0625 24.558594 C 26.960938 25.671875 24.667969 27.988281 24.667969 32.703125 C 24.667969 35.785156 26.207031 39.636719 28.886719 43.273438 Z M 59.070312 8.492188 C 58.894531 8.492188 58.71875 8.460938 58.542969 8.394531 L 58.40625 8.34375 C 57.628906 8.054688 57.238281 7.1875 57.527344 6.414062 C 57.820312 5.636719 58.683594 5.246094 59.457031 5.535156 L 59.601562 5.589844 C 60.378906 5.882812 60.769531 6.746094 60.476562 7.523438 C 60.25 8.121094 59.679688 8.492188 59.070312 8.492188 Z M 59.070312 8.492188 " fill-opacity="1" fill-rule="nonzero"/></g><g clip-path="url(#c60ae73b07)"><path fill="#043044" d="M 4.753906 75.367188 C 4.285156 75.367188 3.832031 75.144531 3.546875 74.757812 C 3.214844 74.300781 3.164062 73.695312 3.417969 73.191406 L 13.796875 52.652344 C 14.171875 51.914062 15.074219 51.617188 15.8125 51.992188 C 16.550781 52.363281 16.847656 53.265625 16.472656 54.007812 L 7.429688 71.902344 L 27.933594 68.492188 C 28.75 68.355469 29.523438 68.910156 29.660156 69.726562 C 29.796875 70.542969 29.242188 71.316406 28.425781 71.453125 L 5 75.347656 C 4.917969 75.363281 4.835938 75.367188 4.753906 75.367188 Z M 4.753906 75.367188 " fill-opacity="1" fill-rule="nonzero"/></g></svg>