<svg xmlns="http://www.w3.org/2000/svg" width="227" height="24" viewBox="0 0 227 24" fill="none"><path d="M17.4458 17.6051C16.5759 17.6051 15.7562 17.2668 15.1404 16.651L11.813 13.3236C11.5803 13.0891 11.1722 13.0909 10.9395 13.3236L7.59959 16.6636C6.98387 17.2793 6.16588 17.6176 5.2942 17.6176H4.6391L8.85431 21.8328C10.1699 23.1484 12.3052 23.1484 13.6208 21.8328L17.8468 17.6069H17.4458V17.6051Z" fill="#838383"></path><path d="M5.29601 5.83487C6.16591 5.83487 6.98568 6.17316 7.60141 6.78889L10.9414 10.1288C11.1812 10.3687 11.575 10.3705 11.8166 10.1288L15.144 6.80142C15.7598 6.18569 16.5778 5.8474 17.4494 5.8474H17.8504L13.6244 1.62145C12.3088 0.305871 10.1735 0.305871 8.85792 1.62145L4.6427 5.83666H5.2978L5.29601 5.83487Z" fill="#838383"></path><path d="M21.3443 9.34276L18.7901 6.78857C18.7346 6.81184 18.6737 6.82437 18.6093 6.82437H17.4476C16.848 6.82437 16.2591 7.0678 15.8349 7.492L12.5075 10.8194C12.1961 11.1309 11.788 11.2866 11.3781 11.2866C10.9682 11.2866 10.5601 11.1309 10.2487 10.8194L6.90871 7.47947C6.4845 7.05527 5.89741 6.81184 5.29601 6.81184H3.86767C3.80681 6.81184 3.74953 6.79752 3.69584 6.77783L1.13091 9.34276C-0.184668 10.6583 -0.184668 12.7937 1.13091 14.1093L3.69584 16.6742C3.74953 16.6545 3.80681 16.6402 3.86767 16.6402H5.29601C5.89562 16.6402 6.4845 16.3968 6.90871 15.9725L10.2487 12.6326C10.8519 12.0294 11.9043 12.0294 12.5075 12.6326L15.8349 15.96C16.2591 16.3842 16.8462 16.6277 17.4476 16.6277H18.6093C18.6737 16.6277 18.7346 16.642 18.7901 16.6634L21.3443 14.1093C22.6598 12.7937 22.6598 10.6583 21.3443 9.34276Z" fill="#838383"></path><path fill-rule="evenodd" clip-rule="evenodd" d="M55.5197 11.2356C55.4628 11.3076 55.4134 11.3879 55.3702 11.4764C55.2651 11.6888 55.2132 11.9382 55.2132 12.2247C55.2132 12.5146 55.2651 12.7675 55.3702 12.9832C55.3952 13.0346 55.4227 13.0833 55.4521 13.1292C54.819 18.866 50.3492 23.3118 44.9297 23.3118C39.076 23.3118 34.3309 18.1252 34.3309 11.7272C34.3309 5.32919 39.076 0.142578 44.9297 0.142578C50.6326 0.142578 55.2839 5.06559 55.5197 11.2356ZM49.6047 12.8568V11.2236H50.266V10.8444H49.6047V10.1466H49.1837V10.8444H48.8553V11.2236H49.1837V12.8568C49.1837 13.1264 49.2419 13.3203 49.3595 13.4383C49.4765 13.5562 49.6523 13.6152 49.8869 13.6152H50.266V13.2259H49.9563C49.8268 13.2259 49.7355 13.199 49.6829 13.145C49.631 13.0877 49.6047 12.9916 49.6047 12.8568ZM42.3579 10.9304C42.204 10.8393 42.0282 10.7938 41.8305 10.7938C41.6303 10.7938 41.4483 10.8477 41.285 10.9556C41.1217 11.0635 41.0041 11.2152 40.9334 11.4107C40.8533 11.2084 40.7314 11.055 40.5681 10.9506C40.4048 10.8461 40.2165 10.7938 40.0038 10.7938C39.8343 10.7938 39.6785 10.8325 39.5365 10.9101C39.3976 10.9876 39.2869 11.0989 39.2037 11.2438V10.8444H38.7826V13.6152H39.2037V12.0882C39.2037 11.7983 39.2681 11.5775 39.3976 11.4258C39.5271 11.2708 39.7016 11.1933 39.9206 11.1933C40.1333 11.1933 40.3009 11.2674 40.4248 11.4157C40.5512 11.5607 40.6144 11.7713 40.6144 12.0478V13.6152H41.0304V12.0882C41.0304 11.7983 41.0954 11.5775 41.2249 11.4258C41.3544 11.2708 41.5284 11.1933 41.7473 11.1933C41.9606 11.1933 42.1283 11.2674 42.2515 11.4157C42.3779 11.5607 42.4417 11.7713 42.4417 12.0478V13.6152H42.8577V11.982C42.8577 11.7258 42.8133 11.5084 42.7239 11.3298C42.6344 11.1511 42.5124 11.018 42.3579 10.9304ZM43.5484 11.4764C43.4433 11.6888 43.3907 11.9365 43.3907 12.2197C43.3907 12.4995 43.4433 12.7489 43.5484 12.968C43.6529 13.1871 43.7968 13.3574 43.9782 13.4787C44.1602 13.6001 44.3642 13.6607 44.5888 13.6607C44.8077 13.6607 44.9991 13.6085 45.1624 13.504C45.3295 13.3961 45.4539 13.2613 45.5371 13.0995V13.6152H45.9632V10.8444H45.5371V11.35C45.4571 11.1916 45.3351 11.0601 45.1718 10.9556C45.0085 10.8511 44.8158 10.7989 44.5938 10.7989C44.3685 10.7989 44.1633 10.8578 43.9782 10.9759C43.7968 11.0938 43.6529 11.2607 43.5484 11.4764ZM45.4214 11.6787C45.499 11.8337 45.5371 12.0157 45.5371 12.2247C45.5371 12.4338 45.499 12.6174 45.4214 12.7758C45.3445 12.9309 45.24 13.0506 45.1074 13.1349C44.9779 13.2158 44.834 13.2562 44.677 13.2562C44.5199 13.2562 44.376 13.2158 44.2466 13.1349C44.1171 13.0506 44.0138 12.9309 43.9369 12.7758C43.8599 12.6174 43.8212 12.4321 43.8212 12.2197C43.8212 12.0107 43.8599 11.8287 43.9369 11.6736C44.0138 11.5186 44.1171 11.4005 44.2466 11.3197C44.376 11.2388 44.5199 11.1983 44.677 11.1983C44.834 11.1983 44.9779 11.2405 45.1074 11.3247C45.24 11.4056 45.3445 11.5236 45.4214 11.6787ZM47.5716 13.6607C47.3776 13.6607 47.2031 13.6253 47.0492 13.5546C46.8947 13.4804 46.7727 13.3793 46.6832 13.2512C46.5938 13.1197 46.545 12.9697 46.5356 12.8012H46.9704C46.9829 12.9394 47.0411 13.0523 47.1462 13.1399C47.2538 13.2276 47.3945 13.2714 47.5672 13.2714C47.7273 13.2714 47.8537 13.2326 47.9463 13.1551C48.0389 13.0776 48.0852 12.9799 48.0852 12.8618C48.0852 12.7405 48.0358 12.6512 47.9369 12.5939C47.8387 12.5332 47.6861 12.4742 47.479 12.4169C47.2913 12.3629 47.1368 12.309 47.0167 12.2551C46.8997 12.1978 46.7977 12.1152 46.7114 12.0073C46.6282 11.8961 46.5863 11.7511 46.5863 11.5725C46.5863 11.4309 46.625 11.3012 46.702 11.1831C46.7789 11.0652 46.8884 10.9725 47.0304 10.9051C47.1724 10.8342 47.3345 10.7989 47.5159 10.7989C47.7968 10.7989 48.0232 10.8764 48.1959 11.0314C48.3686 11.1865 48.4612 11.3989 48.4737 11.6686H48.0527C48.0433 11.5236 47.9895 11.4073 47.8906 11.3197C47.7955 11.232 47.6654 11.1882 47.5021 11.1882C47.3514 11.1882 47.2306 11.2236 47.1412 11.2944C47.0523 11.3652 47.0073 11.4579 47.0073 11.5725C47.0073 11.6635 47.0336 11.7394 47.0861 11.8C47.1412 11.8573 47.2094 11.9045 47.2894 11.9416C47.3726 11.9753 47.4871 12.014 47.6316 12.0579C47.8137 12.1118 47.9619 12.1657 48.0758 12.2197C48.1903 12.2702 48.2872 12.3478 48.3673 12.4523C48.4505 12.5567 48.4937 12.6933 48.4968 12.8618C48.4968 13.0135 48.458 13.15 48.3811 13.2714C48.3041 13.3928 48.1947 13.4888 48.0527 13.5596C47.9138 13.627 47.7536 13.6607 47.5716 13.6607ZM53.0887 12.1236C53.0887 12.2112 53.0843 12.304 53.0749 12.4017H51.0492C51.0642 12.6748 51.1493 12.8888 51.3032 13.0439C51.4609 13.1956 51.6504 13.2714 51.8725 13.2714C52.0546 13.2714 52.2053 13.2259 52.3254 13.1349C52.4493 13.0405 52.5356 12.9158 52.5844 12.7607H53.038C52.9704 13.027 52.8347 13.2445 52.6307 13.413C52.4274 13.5781 52.1747 13.6607 51.8725 13.6607C51.6317 13.6607 51.4158 13.6017 51.225 13.4838C51.0367 13.3658 50.8885 13.199 50.7809 12.9832C50.6726 12.7641 50.6188 12.5112 50.6188 12.2247C50.6188 11.9382 50.6714 11.6871 50.7759 11.4714C50.8809 11.2556 51.0273 11.0904 51.2156 10.9759C51.4064 10.8578 51.6254 10.7989 51.8725 10.7989C52.1127 10.7989 52.3254 10.8561 52.5106 10.9708C52.6958 11.0854 52.8378 11.2438 52.936 11.446C53.038 11.6449 53.0887 11.8708 53.0887 12.1236ZM52.6539 12.0275C52.6539 11.8523 52.6188 11.7022 52.5475 11.5775C52.4768 11.4494 52.3799 11.3534 52.256 11.2893C52.1359 11.2219 52.002 11.1882 51.8537 11.1882C51.641 11.1882 51.459 11.2624 51.3082 11.4107C51.16 11.559 51.0749 11.7646 51.0536 12.0275H52.6539ZM54.3799 10.9253C54.2441 11.0129 54.1397 11.1359 54.0652 11.2944V10.8444H53.6448V13.6152H54.0652V12.1085C54.0652 11.5489 54.3017 11.2691 54.7734 11.2691H54.8841V10.7938C54.687 10.7938 54.5188 10.8376 54.3799 10.9253Z" fill="#838383"></path><path fill-rule="evenodd" clip-rule="evenodd" d="M48.9679 11.2237C48.9616 11.3906 48.9585 11.5585 48.9585 11.7272C48.9585 18.1252 53.7036 23.3118 59.5573 23.3118C65.4109 23.3118 70.1567 18.1252 70.1567 11.7272C70.1567 5.32918 65.4109 0.142577 59.5573 0.142578C53.9757 0.142579 49.4014 4.85883 48.9885 10.8444H49.1837V10.1467H49.6047V10.8444H50.266V11.2237H49.6047V12.8569C49.6047 12.9917 49.631 13.0877 49.6836 13.1451C49.7355 13.199 49.8268 13.226 49.9563 13.226H50.266V13.6153H49.8869C49.6523 13.6153 49.4765 13.5563 49.3595 13.4383C49.2425 13.3203 49.1837 13.1265 49.1837 12.8569V11.2237H48.9679ZM63.0318 11.4765C62.9267 11.6888 62.8748 11.9366 62.8748 12.2198C62.8748 12.4995 62.9267 12.749 63.0318 12.9681C63.1369 13.1872 63.2802 13.3574 63.4622 13.4787C63.6467 13.6001 63.8519 13.6608 64.0772 13.6608C64.2961 13.6608 64.4875 13.6085 64.6508 13.504C64.8141 13.3962 64.9374 13.2596 65.0206 13.0945V13.6153H65.4466V9.8736H65.0206V11.3399C64.9311 11.1782 64.8016 11.0484 64.6321 10.9506C64.4625 10.8495 64.2792 10.7989 64.0815 10.7989C63.8538 10.7989 63.6467 10.8579 63.4622 10.9759C63.2802 11.0939 63.1369 11.2607 63.0318 11.4765ZM64.9054 11.6787C64.9824 11.8338 65.0206 12.0158 65.0206 12.2248C65.0206 12.4338 64.9824 12.6175 64.9054 12.7759C64.8279 12.931 64.7234 13.0507 64.5908 13.1349C64.4613 13.2158 64.318 13.2563 64.1604 13.2563C64.0033 13.2563 63.8595 13.2158 63.73 13.1349C63.6005 13.0507 63.4972 12.931 63.4203 12.7759C63.3433 12.6175 63.3046 12.4321 63.3046 12.2198C63.3046 12.0108 63.3433 11.8287 63.4203 11.6737C63.4972 11.5186 63.6005 11.4006 63.73 11.3197C63.8595 11.2388 64.0033 11.1984 64.1604 11.1984C64.318 11.1984 64.4613 11.2405 64.5908 11.3248C64.7234 11.4057 64.8279 11.5237 64.9054 11.6787ZM53.0893 12.1237C53.0893 12.2113 53.0843 12.304 53.0749 12.4018H51.0492C51.0642 12.6748 51.1493 12.8888 51.3032 13.0439C51.4609 13.1956 51.6504 13.2715 51.8725 13.2715C52.0545 13.2715 52.2053 13.226 52.3261 13.1349C52.4493 13.0405 52.5356 12.9158 52.585 12.7607H53.038C52.9704 13.0271 52.8347 13.2445 52.6313 13.413C52.4274 13.5782 52.1747 13.6608 51.8725 13.6608C51.6316 13.6608 51.4158 13.6018 51.225 13.4838C51.0367 13.3658 50.8884 13.199 50.7808 12.9833C50.6726 12.7641 50.6188 12.5113 50.6188 12.2248C50.6188 11.9383 50.6714 11.6871 50.7758 11.4714C50.8809 11.2556 51.0273 11.0905 51.2156 10.9759C51.4071 10.8579 51.626 10.7989 51.8725 10.7989C52.1127 10.7989 52.3261 10.8562 52.5106 10.9708C52.6958 11.0855 52.8378 11.2439 52.9366 11.4461C53.038 11.645 53.0893 11.8709 53.0893 12.1237ZM52.6545 12.0276C52.6545 11.8523 52.6188 11.7023 52.5475 11.5776C52.4768 11.4495 52.3799 11.3534 52.2566 11.2894C52.1359 11.222 52.002 11.1882 51.8537 11.1882C51.641 11.1882 51.459 11.2624 51.3082 11.4107C51.1599 11.559 51.0755 11.7647 51.0536 12.0276H52.6545ZM54.3799 10.9253C54.2447 11.0129 54.1396 11.136 54.0658 11.2944V10.8444H53.6448V13.6153H54.0658V12.1085C54.0658 11.549 54.3017 11.2692 54.7734 11.2692H54.8841V10.7938C54.687 10.7938 54.5188 10.8377 54.3799 10.9253ZM55.2132 12.2248C55.2132 11.9383 55.2657 11.6888 55.3702 11.4765C55.4753 11.2607 55.6198 11.0939 55.805 10.9759C55.9933 10.8579 56.2078 10.7989 56.4481 10.7989C56.7596 10.7989 57.0155 10.8815 57.2157 11.0467C57.4196 11.2118 57.5535 11.4411 57.6186 11.7343H57.165C57.1218 11.5658 57.0374 11.4326 56.9104 11.3349C56.7871 11.2371 56.6332 11.1882 56.4481 11.1882C56.2078 11.1882 56.0133 11.2793 55.865 11.4613C55.7174 11.64 55.6429 11.8945 55.6429 12.2248C55.6429 12.5585 55.7174 12.8164 55.865 12.9984C56.0133 13.1805 56.2078 13.2715 56.4481 13.2715C56.6332 13.2715 56.7871 13.2243 56.9104 13.1299C57.0343 13.0355 57.1187 12.9007 57.165 12.7254H57.6186C57.5504 13.0086 57.4146 13.236 57.2113 13.408C57.008 13.5765 56.7534 13.6608 56.4481 13.6608C56.2078 13.6608 55.9933 13.6018 55.805 13.4838C55.6198 13.3658 55.4753 13.199 55.3702 12.9833C55.2657 12.7675 55.2132 12.5147 55.2132 12.2248ZM58.1803 11.4765C58.0752 11.6888 58.0227 11.9366 58.0227 12.2198C58.0227 12.4995 58.0752 12.749 58.1803 12.9681C58.2848 13.1872 58.4281 13.3574 58.6101 13.4787C58.7922 13.6001 58.9955 13.6608 59.2207 13.6608C59.4396 13.6608 59.6311 13.6085 59.7944 13.504C59.9608 13.3962 60.0859 13.2613 60.1691 13.0996V13.6153H60.5945V10.8444H60.1691V11.3501C60.089 11.1916 59.967 11.0601 59.8037 10.9557C59.6405 10.8512 59.4478 10.7989 59.2257 10.7989C59.0005 10.7989 58.7953 10.8579 58.6101 10.9759C58.4281 11.0939 58.2848 11.2607 58.1803 11.4765ZM60.0534 11.6787C60.1309 11.8338 60.1691 12.0158 60.1691 12.2248C60.1691 12.4338 60.1309 12.6175 60.0534 12.7759C59.9764 12.931 59.8713 13.0507 59.7387 13.1349C59.6092 13.2158 59.4659 13.2563 59.3089 13.2563C59.1513 13.2563 59.008 13.2158 58.8785 13.1349C58.749 13.0507 58.6458 12.931 58.5688 12.7759C58.4913 12.6175 58.4531 12.4321 58.4531 12.2198C58.4531 12.0108 58.4913 11.8287 58.5688 11.6737C58.6458 11.5186 58.749 11.4006 58.8785 11.3197C59.008 11.2388 59.1513 11.1984 59.3089 11.1984C59.4659 11.1984 59.6092 11.2405 59.7387 11.3248C59.8713 11.4057 59.9764 11.5237 60.0534 11.6787ZM61.7268 11.2944C61.8013 11.136 61.9057 11.0129 62.0415 10.9253C62.1804 10.8377 62.3486 10.7938 62.5457 10.7938V11.2692H62.435C61.9633 11.2692 61.7268 11.549 61.7268 12.1085V13.6153H61.3064V10.8444H61.7268V11.2944Z" fill="#838383"></path><path fill-rule="evenodd" clip-rule="evenodd" d="M107.542 4.89116C106.096 4.95658 104.849 5.40108 103.94 6.1756C103.77 6.32073 103.446 6.66483 103.32 6.83366C102.888 7.41425 102.64 8.06435 102.55 8.85017C102.532 9.00948 102.532 9.57 102.55 9.7104C102.674 10.6543 103.147 11.3849 104.074 12.0663C104.383 12.2933 104.627 12.4469 105.329 12.8555C105.59 13.0078 105.867 13.1726 105.945 13.2219C106.554 13.609 106.844 13.9156 106.938 14.2741C106.97 14.3952 106.97 14.5812 106.938 14.7098C106.836 15.1163 106.485 15.4545 105.971 15.6413C105.69 15.7434 105.391 15.7941 105.016 15.8032C104.114 15.8249 103.065 15.5809 102.168 15.141C102.035 15.0757 101.84 14.9691 101.813 14.9467C101.806 14.9406 101.797 14.9385 101.794 14.9419C101.782 14.9548 101.215 17.825 101.223 17.8327C101.239 17.8479 101.476 17.9436 101.678 18.016C102.351 18.2578 103.127 18.4348 103.857 18.5129C104.485 18.5802 105.145 18.5822 105.725 18.5186C107.513 18.3227 108.94 17.5241 109.687 16.3018C110.112 15.6076 110.315 14.814 110.295 13.9278C110.286 13.5737 110.248 13.314 110.161 13.0216C109.911 12.1842 109.353 11.5098 108.377 10.8642C108.154 10.7169 107.889 10.5578 107.432 10.2967C106.916 10.0015 106.721 9.88257 106.519 9.73836C106.321 9.59755 106.215 9.50647 106.111 9.38974C105.929 9.18594 105.85 9.00241 105.85 8.78316C105.85 8.29747 106.295 7.88151 106.989 7.71784C107.366 7.6288 107.879 7.61621 108.398 7.68335C108.993 7.76015 109.676 7.9596 110.194 8.20714C110.265 8.24101 110.324 8.26741 110.326 8.26577C110.327 8.26414 110.453 7.64465 110.606 6.8891C110.758 6.13354 110.886 5.50654 110.889 5.49575C110.896 5.47201 110.864 5.45669 110.647 5.37645C110.02 5.1443 109.243 4.97552 108.539 4.91809C108.458 4.91153 108.365 4.90369 108.33 4.90066C108.251 4.89372 107.646 4.88642 107.542 4.89116ZM82.2212 5.11038C82.2137 5.13269 82.1536 5.51397 82.1567 5.51726C82.158 5.51889 82.2299 5.53581 82.3156 5.55486C82.9844 5.70325 83.675 5.91742 84.2812 6.16436C84.8142 6.38143 85.0069 6.46817 85.1909 6.57436C85.5218 6.7651 85.7407 6.9908 85.8627 7.26643C85.9622 7.49234 85.956 7.46874 86.5227 9.81094C86.7555 10.7726 86.9644 11.6347 86.9863 11.7269C87.027 11.893 87.9441 15.681 88.0404 16.0783C88.0679 16.1921 88.2024 16.7488 88.3395 17.3156L88.5891 18.3462H90.27L91.9504 18.3463L94.5347 11.7311C95.9554 8.09286 97.1196 5.11161 97.1215 5.10622C97.1234 5.10062 96.4064 5.09642 95.4499 5.09642H93.7746L93.7565 5.1439C93.7471 5.17001 93.0014 7.18977 92.0999 9.63217C91.1984 12.0746 90.4571 14.0805 90.4521 14.0898C90.4452 14.1016 90.4427 14.1022 90.4427 14.0921C90.4421 14.0634 89.0845 6.42844 89.0589 6.30999C88.9625 5.86158 88.7035 5.49868 88.3326 5.29259C88.1499 5.19083 87.9616 5.13231 87.7395 5.10819C87.5706 5.08979 82.2268 5.09191 82.2212 5.11038ZM98.4672 5.12714C98.464 5.14403 97.8753 8.10891 97.1597 11.7158C96.444 15.3226 95.8559 18.29 95.8528 18.3099L95.8472 18.3463H97.4437H99.0402L100.344 11.7521C101.061 8.12524 101.65 5.14403 101.652 5.12714L101.656 5.09642H100.064H98.4728L98.4672 5.12714ZM116.092 5.10925C115.564 5.16788 115.177 5.49644 114.901 6.11865C114.867 6.19528 110.225 18.114 110.144 18.3323C110.14 18.3434 110.479 18.3463 111.815 18.3463H113.489L113.617 17.9525C113.687 17.7359 113.832 17.286 113.939 16.9527L114.134 16.3468L116.178 16.3467C117.302 16.3466 118.221 16.3477 118.222 16.3493C118.222 16.3508 118.31 16.7995 118.418 17.3464L118.613 18.3407L120.094 18.3435C121.501 18.3462 121.574 18.3454 121.568 18.3267C121.563 18.3056 118.994 5.11123 118.994 5.102C118.994 5.09205 116.183 5.09908 116.092 5.10925ZM117.23 11.1561C117.5 12.5073 117.72 13.6221 117.72 13.6335C117.72 13.6533 117.676 13.6541 116.393 13.6541C115.337 13.6541 115.067 13.6512 115.071 13.6401C115.135 13.4387 116.734 8.68317 116.736 8.68977C116.738 8.69507 116.96 9.80489 117.23 11.1561Z" fill="#838383"></path><path d="M133.569 2.27002H135.347V13.7597H133.569V2.27002Z" fill="#838383"></path><path d="M136.479 2.27002H137.288V13.7597H136.479V2.27002Z" fill="#838383"></path><path d="M138.744 2.27002H140.199V13.7597H138.744V2.27002Z" fill="#838383"></path><path d="M141.493 2.27002H142.463V13.7597H141.493V2.27002Z" fill="#838383"></path><path d="M143.757 2.27002H146.022V13.7597H143.757V2.27002Z" fill="#838383"></path><path d="M156.372 2.27002H158.313V13.7597H156.372V2.27002Z" fill="#838383"></path><path d="M147.639 2.27002H149.094V13.7597H147.639V2.27002Z" fill="#838383"></path><path d="M159.606 2.27002H160.9V13.7597H159.606V2.27002Z" fill="#838383"></path><path d="M150.55 2.27002H151.682V13.7597H150.55V2.27002Z" fill="#838383"></path><path d="M162.194 2.27002H163.165V13.7597H162.194V2.27002Z" fill="#838383"></path><path d="M153.461 2.27002H154.593V13.7597H153.461V2.27002Z" fill="#838383"></path><path d="M164.62 2.27002H166.399V13.7597H164.62V2.27002Z" fill="#838383"></path><path d="M137.058 18.3376C137.33 18.4341 137.546 18.5965 137.705 18.8248C137.865 19.0481 137.944 19.3271 137.944 19.662C137.944 20.1238 137.78 20.4815 137.452 20.7352C137.123 20.9838 136.645 21.1082 136.017 21.1082H133.569V15.7803H135.876C136.458 15.7803 136.906 15.9046 137.22 16.1532C137.534 16.3968 137.691 16.7342 137.691 17.1655C137.691 17.4294 137.634 17.6628 137.522 17.8658C137.409 18.0687 137.255 18.226 137.058 18.3376ZM134.483 16.5566V18.0256H135.778C136.096 18.0256 136.34 17.9647 136.509 17.8429C136.682 17.7161 136.769 17.5334 136.769 17.2949C136.769 17.0514 136.682 16.8687 136.509 16.7469C136.34 16.62 136.096 16.5566 135.778 16.5566H134.483ZM135.96 20.3318C136.668 20.3318 137.023 20.0756 137.023 19.5631C137.023 19.0506 136.668 18.7944 135.96 18.7944H134.483V20.3318H135.96Z" fill="#838383"></path><path d="M141.924 21.1843C141.422 21.1843 140.969 21.0675 140.566 20.8341C140.163 20.5956 139.846 20.2684 139.616 19.8523C139.387 19.4311 139.271 18.9617 139.271 18.4442C139.271 17.9266 139.387 17.4597 139.616 17.0437C139.846 16.6225 140.163 16.2952 140.566 16.0618C140.969 15.8233 141.422 15.7041 141.924 15.7041C142.426 15.7041 142.878 15.8233 143.282 16.0618C143.685 16.2952 144.002 16.62 144.231 17.0361C144.461 17.4522 144.576 17.9216 144.576 18.4442C144.576 18.9668 144.461 19.4362 144.231 19.8523C144.002 20.2684 143.685 20.5956 143.282 20.8341C142.878 21.0675 142.426 21.1843 141.924 21.1843ZM141.924 20.3165C142.252 20.3165 142.548 20.2379 142.81 20.0806C143.073 19.9182 143.279 19.6949 143.429 19.4108C143.579 19.1216 143.654 18.7993 143.654 18.4442C143.654 18.089 143.579 17.7693 143.429 17.4851C143.279 17.1959 143.073 16.9726 142.81 16.8153C142.548 16.653 142.252 16.5717 141.924 16.5717C141.596 16.5717 141.3 16.653 141.038 16.8153C140.775 16.9726 140.568 17.1959 140.418 17.4851C140.269 17.7693 140.194 18.089 140.194 18.4442C140.194 18.7993 140.269 19.1216 140.418 19.4108C140.568 19.6949 140.775 19.9182 141.038 20.0806C141.3 20.2379 141.596 20.3165 141.924 20.3165Z" fill="#838383"></path><path d="M146.249 15.7803H147.163V20.271H149.738V21.1082H146.249V15.7803Z" fill="#838383"></path><path d="M154.857 20.2786V21.1082H151.163V15.7803H154.759V16.6099H152.078V17.9951H154.456V18.8096H152.078V20.2786H154.857Z" fill="#838383"></path><path d="M157.579 16.6175H155.947V15.7803H160.126V16.6175H158.493V21.1082H157.579V16.6175Z" fill="#838383"></path><path d="M163.747 21.1843C163.245 21.1843 162.792 21.0675 162.389 20.8341C161.986 20.5956 161.67 20.2684 161.439 19.8523C161.21 19.4311 161.095 18.9617 161.095 18.4442C161.095 17.9266 161.21 17.4597 161.439 17.0437C161.67 16.6225 161.986 16.2952 162.389 16.0618C162.792 15.8233 163.245 15.7041 163.747 15.7041C164.249 15.7041 164.701 15.8233 165.105 16.0618C165.508 16.2952 165.825 16.62 166.054 17.0361C166.284 17.4522 166.399 17.9216 166.399 18.4442C166.399 18.9668 166.284 19.4362 166.054 19.8523C165.825 20.2684 165.508 20.5956 165.105 20.8341C164.701 21.0675 164.249 21.1843 163.747 21.1843ZM163.747 20.3165C164.075 20.3165 164.371 20.2379 164.633 20.0806C164.896 19.9182 165.102 19.6949 165.252 19.4108C165.402 19.1216 165.478 18.7993 165.478 18.4442C165.478 18.089 165.402 17.7693 165.252 17.4851C165.102 17.1959 164.896 16.9726 164.633 16.8153C164.371 16.653 164.075 16.5717 163.747 16.5717C163.419 16.5717 163.123 16.653 162.861 16.8153C162.598 16.9726 162.391 17.1959 162.241 17.4851C162.091 17.7693 162.016 18.089 162.016 18.4442C162.016 18.7993 162.091 19.1216 162.241 19.4108C162.391 19.6949 162.598 19.9182 162.861 20.0806C163.123 20.2379 163.419 20.3165 163.747 20.3165Z" fill="#838383"></path><path fill-rule="evenodd" clip-rule="evenodd" d="M179.955 4.56428C180.002 4.43739 180.103 4.31842 180.213 4.25693L180.301 4.20703L182.568 4.21427C184.574 4.22069 184.854 4.22549 185.004 4.25591C185.489 4.35419 185.805 4.46008 186.106 4.62528C186.813 5.01407 187.231 5.63218 187.396 6.53344C187.444 6.802 187.463 7.4336 187.433 7.77624C187.348 8.72477 187.11 9.62718 186.774 10.2777C186.221 11.3491 185.365 11.9966 184.183 12.2374C183.809 12.3136 183.611 12.3273 182.693 12.3404L181.783 12.3534L181.688 12.4149C181.586 12.4806 181.504 12.5859 181.462 12.7044C181.448 12.7446 181.339 13.494 181.221 14.3697L181.22 14.3744C181.017 15.8851 180.991 16.0772 180.897 16.1946C180.883 16.2117 180.868 16.2272 180.851 16.245C180.814 16.2819 180.749 16.3322 180.704 16.3564C180.625 16.399 180.596 16.4005 179.659 16.4067C179.004 16.4111 178.674 16.4059 178.629 16.3905C178.49 16.3428 178.399 16.2043 178.399 16.0392C178.399 15.9854 178.741 13.4031 179.159 10.3008C179.713 6.18251 179.928 4.63439 179.955 4.56428ZM184.602 7.52931C184.509 7.06253 184.233 6.8039 183.718 6.6986C183.595 6.6733 183.402 6.66173 182.997 6.65514C182.444 6.64622 182.443 6.64629 182.372 6.69445L182.371 6.695C182.353 6.7067 182.338 6.71683 182.325 6.72928C182.235 6.8118 182.211 6.99349 182.024 8.38485L182.023 8.39438C181.916 9.19992 181.827 9.86505 181.827 9.87261C181.827 9.90029 183.187 9.86499 183.336 9.83336C183.742 9.74717 183.983 9.61724 184.193 9.3714C184.347 9.18998 184.437 9.01788 184.515 8.74926C184.619 8.3975 184.66 7.81474 184.602 7.52931ZM188.883 8.76191C189.358 8.41832 189.907 8.18513 190.439 8.10174C190.673 8.06507 191.174 8.0582 191.431 8.08813C192.26 8.18438 192.78 8.46158 193.084 8.96877C193.138 9.05883 193.185 9.12917 193.189 9.12502C193.192 9.1208 193.212 8.99129 193.233 8.83714C193.28 8.49138 193.311 8.40138 193.411 8.3237L193.488 8.26479L194.44 8.25894C195.077 8.25493 195.415 8.26037 195.463 8.2754C195.502 8.28771 195.562 8.33016 195.596 8.36975C195.605 8.38029 195.613 8.38852 195.621 8.39608C195.628 8.40288 195.635 8.4092 195.641 8.41628C195.715 8.50444 195.687 8.71007 195.313 11.4825C195.279 11.729 195.244 11.9958 195.205 12.2845C194.825 15.1023 194.701 15.9825 194.672 16.0544C194.623 16.1757 194.517 16.299 194.412 16.3554C194.332 16.3991 194.306 16.4005 193.451 16.4065C192.866 16.4105 192.548 16.4051 192.501 16.3902C192.406 16.3603 192.313 16.2539 192.284 16.1423C192.264 16.0634 192.266 16.0154 192.3 15.7671C192.322 15.6106 192.34 15.4687 192.34 15.4519C192.339 15.4343 192.299 15.4661 192.245 15.5264C191.858 15.9612 191.311 16.3055 190.736 16.4758C190.096 16.6653 189.328 16.636 188.719 16.399C187.865 16.0666 187.239 15.2328 186.997 14.1057C186.748 12.9497 186.947 11.5222 187.512 10.4188C187.857 9.74418 188.352 9.14625 188.883 8.76191ZM196.569 8.62545C196.569 8.48056 196.674 8.31907 196.797 8.27458C196.824 8.26499 197.283 8.25887 197.818 8.26098L198.791 8.26479L198.871 8.31397C198.972 8.3756 199.079 8.49287 199.121 8.58845C199.139 8.62879 199.388 9.58153 199.675 10.7058C199.962 11.83 200.202 12.7617 200.208 12.7763C200.216 12.7925 200.706 11.9639 201.46 10.6606C202.142 9.48235 202.73 8.48145 202.768 8.43641C202.806 8.39138 202.874 8.33431 202.92 8.30962C203.001 8.26581 203.024 8.26465 203.975 8.25833C204.639 8.25391 204.969 8.25901 205.014 8.27452C205.094 8.30179 205.181 8.38349 205.216 8.46444C205.248 8.53498 205.251 8.71865 205.222 8.78245C205.183 8.86755 199.187 19.0075 199.141 19.0663C199.116 19.0986 199.046 19.1527 198.987 19.1868L198.88 19.2488L197.861 19.243L196.843 19.2373L196.777 19.1788C196.664 19.0783 196.619 18.9212 196.663 18.7777C196.676 18.7322 197.105 18.0041 197.616 17.1598C198.126 16.3155 198.55 15.6138 198.557 15.6003C198.564 15.5868 198.12 14.0268 197.57 12.1336C197.019 10.2403 196.569 8.66171 196.569 8.62545ZM192.805 11.3676C192.649 10.8381 192.278 10.4715 191.778 10.3516C191.635 10.3171 191.301 10.2953 191.17 10.3118C190.689 10.3727 190.211 10.6435 189.906 11.0285C189.526 11.5079 189.312 12.2034 189.347 12.8415C189.37 13.2651 189.491 13.6039 189.713 13.8647C189.916 14.1039 190.139 14.241 190.447 14.3159C190.666 14.369 191.062 14.3658 191.286 14.3091C192.028 14.1223 192.56 13.5633 192.791 12.7289C192.923 12.2535 192.927 11.7865 192.805 11.3676Z" fill="#838383"></path><path d="M224.363 4.26005C224.314 4.29418 224.276 4.34264 224.252 4.40067C224.226 4.46655 224.02 5.96095 223.447 10.2362C223.024 13.397 222.678 16.014 222.678 16.0517C222.679 16.2073 222.776 16.3476 222.912 16.3904C222.959 16.4053 223.263 16.4107 223.817 16.4066L224.651 16.4004L224.745 16.3506C224.868 16.2856 224.989 16.1293 225.026 15.9868C225.057 15.8696 226.57 4.66153 226.57 4.55206C226.57 4.44947 226.497 4.30835 226.416 4.25488L226.346 4.2083L225.392 4.20816L224.437 4.20801L224.363 4.26005Z" fill="#838383"></path><path fill-rule="evenodd" clip-rule="evenodd" d="M217.343 8.07954C217.318 8.08368 217.226 8.09763 217.138 8.11049C217.049 8.12334 216.884 8.16035 216.772 8.19266C215.199 8.64257 214.004 10.1772 213.693 12.1443C213.533 13.1577 213.627 14.0695 213.975 14.8783C214.479 16.052 215.426 16.6435 216.718 16.592C217.03 16.5795 217.222 16.5474 217.512 16.4589C218.011 16.3068 218.527 15.9865 218.913 15.5899C218.997 15.5042 219.067 15.4365 219.069 15.4394C219.073 15.4424 219.058 15.5612 219.039 15.7034C219.019 15.8456 219.002 15.9975 219.002 16.0408C219.002 16.2061 219.096 16.346 219.236 16.39C219.283 16.4048 219.598 16.4102 220.176 16.4062L221.046 16.4L221.148 16.3415C221.276 16.2677 221.385 16.1264 221.421 15.9853C221.457 15.8452 222.411 8.74862 222.411 8.62114C222.411 8.45653 222.321 8.32082 222.183 8.27585C222.089 8.24538 220.32 8.24674 220.225 8.27735C220.186 8.29 220.125 8.33463 220.089 8.37646C220.017 8.46054 220.005 8.5106 219.952 8.91868L219.921 9.15568L219.836 9.00888C219.522 8.47258 218.999 8.18667 218.148 8.08783C217.976 8.0679 217.444 8.06246 217.343 8.07954ZM219.51 12.7564C219.836 11.6177 219.434 10.6109 218.555 10.3609C218.407 10.319 218.018 10.2905 217.878 10.3114C216.88 10.46 216.178 11.3131 216.077 12.4993C216.024 13.1211 216.206 13.6872 216.56 14.0005C216.921 14.3205 217.449 14.4355 217.998 14.3138C218.713 14.1552 219.276 13.576 219.51 12.7564Z" fill="#838383"></path><path fill-rule="evenodd" clip-rule="evenodd" d="M206.925 4.27013C206.808 4.3384 206.745 4.41135 206.686 4.54407C206.659 4.60571 206.467 5.99512 205.882 10.3419C205.189 15.4918 205.115 16.0668 205.134 16.1408C205.161 16.2456 205.258 16.3602 205.345 16.3882C205.442 16.42 207.342 16.4181 207.45 16.3862C207.555 16.3552 207.676 16.2228 207.704 16.1078C207.715 16.062 207.82 15.3016 207.938 14.4182C208.056 13.5347 208.165 12.7706 208.181 12.7201C208.217 12.6061 208.31 12.4827 208.416 12.4102C208.512 12.3447 208.479 12.3468 209.57 12.3343C210.391 12.3248 210.614 12.3052 211.042 12.2049C211.547 12.087 211.968 11.9033 212.345 11.6372C213.285 10.9741 213.875 9.83001 214.102 8.23308C214.297 6.85852 214.106 5.86544 213.515 5.17709C213.109 4.70404 212.556 4.41792 211.751 4.26404C211.52 4.22013 211.468 4.21904 209.276 4.21239L207.035 4.20557L206.925 4.27013ZM210.975 6.91437C210.875 6.83471 210.653 6.73995 210.466 6.69819C210.284 6.6573 209.205 6.63445 209.133 6.66989C209.074 6.69921 209.011 6.76961 208.978 6.84301C208.964 6.87586 208.862 7.57053 208.751 8.38668L208.551 9.87062L209.096 9.87681C209.649 9.88314 209.943 9.86389 210.184 9.80573C210.866 9.64111 211.222 9.16562 211.336 8.26825C211.419 7.61529 211.303 7.17816 210.975 6.91437Z" fill="#838383"></path></svg>