<svg xmlns="http://www.w3.org/2000/svg" xmlns:xlink="http://www.w3.org/1999/xlink" width="1920" zoomAndPan="magnify" viewBox="0 0 1440 809.999993" height="1080" preserveAspectRatio="xMidYMid meet" version="1.0"><defs><clipPath id="55740c1d92"><path d="M 519 374.628906 L 574 374.628906 L 574 434 L 519 434 Z M 519 374.628906 " clip-rule="nonzero"/></clipPath><clipPath id="31abe33b75"><path d="M 556 374.628906 L 611 374.628906 L 611 434 L 556 434 Z M 556 374.628906 " clip-rule="nonzero"/></clipPath></defs><path fill="#ffffff" d="M 476.910156 419.183594 C 474.707031 419.183594 472.632812 418.328125 471.074219 416.769531 L 462.65625 408.347656 C 462.066406 407.753906 461.03125 407.757812 460.445312 408.347656 L 451.992188 416.800781 C 450.433594 418.359375 448.363281 419.214844 446.15625 419.214844 L 444.5 419.214844 L 455.167969 429.882812 C 458.496094 433.210938 463.898438 433.210938 467.230469 429.882812 L 477.925781 419.1875 L 476.910156 419.1875 Z M 476.910156 419.183594 " fill-opacity="1" fill-rule="nonzero"/><path fill="#ffffff" d="M 446.160156 389.394531 C 448.363281 389.394531 450.4375 390.25 451.996094 391.808594 L 460.449219 400.261719 C 461.054688 400.871094 462.050781 400.875 462.664062 400.261719 L 471.085938 391.84375 C 472.644531 390.285156 474.714844 389.425781 476.917969 389.425781 L 477.933594 389.425781 L 467.238281 378.734375 C 463.910156 375.402344 458.503906 375.402344 455.175781 378.734375 L 444.507812 389.398438 L 446.164062 389.398438 Z M 446.160156 389.394531 " fill-opacity="1" fill-rule="nonzero"/><path fill="#ffffff" d="M 486.777344 398.273438 L 480.3125 391.808594 C 480.171875 391.867188 480.015625 391.898438 479.855469 391.898438 L 476.914062 391.898438 C 475.398438 391.898438 473.90625 392.515625 472.832031 393.589844 L 464.410156 402.011719 C 463.625 402.796875 462.589844 403.191406 461.554688 403.191406 C 460.515625 403.191406 459.484375 402.796875 458.695312 402.011719 L 450.242188 393.558594 C 449.167969 392.484375 447.683594 391.867188 446.160156 391.867188 L 442.546875 391.867188 C 442.394531 391.867188 442.246094 391.832031 442.113281 391.78125 L 435.621094 398.273438 C 432.292969 401.601562 432.292969 407.007812 435.621094 410.335938 L 442.113281 416.828125 C 442.246094 416.777344 442.394531 416.742188 442.546875 416.742188 L 446.160156 416.742188 C 447.679688 416.742188 449.167969 416.125 450.242188 415.050781 L 458.695312 406.597656 C 460.222656 405.074219 462.886719 405.074219 464.410156 406.597656 L 472.832031 415.019531 C 473.90625 416.09375 475.390625 416.710938 476.914062 416.710938 L 479.855469 416.710938 C 480.015625 416.710938 480.171875 416.746094 480.3125 416.800781 L 486.777344 410.335938 C 490.105469 407.007812 490.105469 401.601562 486.777344 398.273438 Z M 486.777344 398.273438 " fill-opacity="1" fill-rule="nonzero"/><g clip-path="url(#55740c1d92)"><path fill="#ffffff" d="M 573.265625 403.0625 C 573.121094 403.246094 572.996094 403.449219 572.886719 403.671875 C 572.621094 404.210938 572.488281 404.84375 572.488281 405.566406 C 572.488281 406.300781 572.621094 406.941406 572.886719 407.488281 C 572.949219 407.617188 573.019531 407.738281 573.09375 407.855469 C 571.492188 422.375 560.179688 433.625 546.464844 433.625 C 531.652344 433.625 519.640625 420.5 519.640625 404.308594 C 519.640625 388.117188 531.652344 374.988281 546.464844 374.988281 C 560.898438 374.988281 572.667969 387.449219 573.265625 403.0625 Z M 558.296875 407.167969 L 558.296875 403.035156 L 559.96875 403.035156 L 559.96875 402.074219 L 558.296875 402.074219 L 558.296875 400.308594 L 557.230469 400.308594 L 557.230469 402.074219 L 556.398438 402.074219 L 556.398438 403.035156 L 557.230469 403.035156 L 557.230469 407.167969 C 557.230469 407.847656 557.378906 408.339844 557.675781 408.636719 C 557.972656 408.9375 558.417969 409.085938 559.011719 409.085938 L 559.96875 409.085938 L 559.96875 408.101562 L 559.1875 408.101562 C 558.859375 408.101562 558.628906 408.03125 558.492188 407.894531 C 558.363281 407.75 558.296875 407.507812 558.296875 407.167969 Z M 539.957031 402.292969 C 539.566406 402.0625 539.121094 401.945312 538.621094 401.945312 C 538.113281 401.945312 537.652344 402.082031 537.242188 402.355469 C 536.828125 402.628906 536.53125 403.011719 536.351562 403.507812 C 536.148438 402.996094 535.839844 402.605469 535.425781 402.34375 C 535.011719 402.078125 534.535156 401.945312 534 401.945312 C 533.570312 401.945312 533.175781 402.042969 532.816406 402.238281 C 532.464844 402.4375 532.183594 402.71875 531.972656 403.085938 L 531.972656 402.074219 L 530.90625 402.074219 L 530.90625 409.085938 L 531.972656 409.085938 L 531.972656 405.222656 C 531.972656 404.488281 532.136719 403.929688 532.464844 403.546875 C 532.792969 403.152344 533.234375 402.957031 533.789062 402.957031 C 534.328125 402.957031 534.75 403.144531 535.0625 403.519531 C 535.382812 403.886719 535.542969 404.417969 535.542969 405.121094 L 535.542969 409.085938 L 536.597656 409.085938 L 536.597656 405.222656 C 536.597656 404.488281 536.761719 403.929688 537.089844 403.546875 C 537.417969 403.152344 537.855469 402.957031 538.410156 402.957031 C 538.949219 402.957031 539.375 403.144531 539.6875 403.519531 C 540.007812 403.886719 540.167969 404.417969 540.167969 405.121094 L 540.167969 409.085938 L 541.222656 409.085938 L 541.222656 404.953125 C 541.222656 404.304688 541.109375 403.753906 540.882812 403.300781 C 540.65625 402.851562 540.347656 402.511719 539.957031 402.292969 Z M 542.96875 403.671875 C 542.703125 404.210938 542.570312 404.835938 542.570312 405.554688 C 542.570312 406.261719 542.703125 406.894531 542.96875 407.449219 C 543.234375 408.003906 543.597656 408.433594 544.058594 408.742188 C 544.515625 409.046875 545.035156 409.199219 545.601562 409.199219 C 546.15625 409.199219 546.640625 409.070312 547.054688 408.804688 C 547.476562 408.53125 547.792969 408.191406 548.003906 407.78125 L 548.003906 409.085938 L 549.082031 409.085938 L 549.082031 402.074219 L 548.003906 402.074219 L 548.003906 403.351562 C 547.800781 402.953125 547.492188 402.621094 547.078125 402.355469 C 546.664062 402.089844 546.175781 401.957031 545.613281 401.957031 C 545.042969 401.957031 544.523438 402.109375 544.058594 402.40625 C 543.597656 402.703125 543.234375 403.128906 542.96875 403.671875 Z M 547.710938 404.183594 C 547.90625 404.578125 548.003906 405.039062 548.003906 405.566406 C 548.003906 406.097656 547.90625 406.5625 547.710938 406.960938 C 547.515625 407.355469 547.25 407.65625 546.914062 407.871094 C 546.585938 408.074219 546.222656 408.175781 545.824219 408.175781 C 545.429688 408.175781 545.0625 408.074219 544.734375 407.871094 C 544.410156 407.65625 544.148438 407.355469 543.953125 406.960938 C 543.757812 406.5625 543.660156 406.089844 543.660156 405.554688 C 543.660156 405.023438 543.757812 404.566406 543.953125 404.171875 C 544.148438 403.78125 544.410156 403.480469 544.734375 403.277344 C 545.0625 403.070312 545.429688 402.96875 545.824219 402.96875 C 546.222656 402.96875 546.585938 403.074219 546.914062 403.289062 C 547.25 403.492188 547.515625 403.792969 547.710938 404.183594 Z M 553.152344 409.199219 C 552.660156 409.199219 552.21875 409.113281 551.828125 408.933594 C 551.4375 408.746094 551.128906 408.488281 550.902344 408.164062 C 550.675781 407.832031 550.554688 407.453125 550.527344 407.027344 L 551.628906 407.027344 C 551.660156 407.375 551.808594 407.660156 552.074219 407.882812 C 552.347656 408.105469 552.703125 408.214844 553.140625 408.214844 C 553.546875 408.214844 553.863281 408.117188 554.097656 407.921875 C 554.332031 407.726562 554.449219 407.476562 554.449219 407.179688 C 554.449219 406.871094 554.324219 406.644531 554.074219 406.5 C 553.828125 406.347656 553.441406 406.199219 552.917969 406.054688 C 552.441406 405.917969 552.050781 405.78125 551.746094 405.644531 C 551.449219 405.5 551.191406 405.289062 550.972656 405.015625 C 550.761719 404.734375 550.65625 404.367188 550.65625 403.917969 C 550.65625 403.558594 550.753906 403.230469 550.949219 402.929688 C 551.144531 402.632812 551.421875 402.398438 551.78125 402.226562 C 552.140625 402.046875 552.550781 401.957031 553.011719 401.957031 C 553.722656 401.957031 554.292969 402.15625 554.730469 402.546875 C 555.167969 402.941406 555.402344 403.476562 555.433594 404.160156 L 554.367188 404.160156 C 554.34375 403.792969 554.207031 403.5 553.957031 403.277344 C 553.71875 403.054688 553.386719 402.945312 552.976562 402.945312 C 552.59375 402.945312 552.289062 403.035156 552.0625 403.210938 C 551.835938 403.390625 551.722656 403.625 551.722656 403.917969 C 551.722656 404.148438 551.789062 404.339844 551.921875 404.492188 C 552.0625 404.636719 552.234375 404.757812 552.4375 404.851562 C 552.648438 404.9375 552.9375 405.035156 553.304688 405.144531 C 553.761719 405.28125 554.136719 405.417969 554.425781 405.554688 C 554.714844 405.683594 554.960938 405.878906 555.164062 406.144531 C 555.375 406.40625 555.484375 406.753906 555.492188 407.179688 C 555.492188 407.5625 555.394531 407.910156 555.199219 408.214844 C 555.003906 408.523438 554.726562 408.765625 554.367188 408.945312 C 554.015625 409.117188 553.613281 409.199219 553.152344 409.199219 Z M 567.113281 405.3125 C 567.113281 405.53125 567.101562 405.769531 567.078125 406.015625 L 561.953125 406.015625 C 561.988281 406.707031 562.207031 407.246094 562.59375 407.640625 C 562.992188 408.023438 563.472656 408.214844 564.035156 408.214844 C 564.496094 408.214844 564.878906 408.101562 565.179688 407.871094 C 565.496094 407.632812 565.714844 407.316406 565.835938 406.921875 L 566.984375 406.921875 C 566.8125 407.597656 566.46875 408.148438 565.953125 408.574219 C 565.441406 408.992188 564.800781 409.199219 564.035156 409.199219 C 563.425781 409.199219 562.878906 409.050781 562.398438 408.753906 C 561.921875 408.453125 561.546875 408.03125 561.273438 407.488281 C 561 406.933594 560.863281 406.292969 560.863281 405.566406 C 560.863281 404.84375 560.996094 404.207031 561.261719 403.660156 C 561.527344 403.113281 561.894531 402.695312 562.371094 402.40625 C 562.855469 402.109375 563.410156 401.957031 564.035156 401.957031 C 564.644531 401.957031 565.179688 402.101562 565.648438 402.394531 C 566.117188 402.683594 566.476562 403.085938 566.726562 403.597656 C 566.984375 404.097656 567.113281 404.671875 567.113281 405.3125 Z M 566.011719 405.066406 C 566.011719 404.625 565.925781 404.246094 565.742188 403.929688 C 565.566406 403.605469 565.320312 403.363281 565.007812 403.199219 C 564.703125 403.027344 564.363281 402.945312 563.988281 402.945312 C 563.449219 402.945312 562.988281 403.132812 562.605469 403.507812 C 562.230469 403.882812 562.015625 404.402344 561.964844 405.066406 Z M 570.382812 402.277344 C 570.039062 402.5 569.773438 402.8125 569.585938 403.210938 L 569.585938 402.074219 L 568.519531 402.074219 L 568.519531 409.085938 L 569.585938 409.085938 L 569.585938 405.273438 C 569.585938 403.855469 570.183594 403.148438 571.375 403.148438 L 571.65625 403.148438 L 571.65625 401.945312 C 571.160156 401.945312 570.734375 402.054688 570.382812 402.277344 Z M 570.382812 402.277344 " fill-opacity="1" fill-rule="evenodd"/></g><g clip-path="url(#31abe33b75)"><path fill="#ffffff" d="M 556.683594 403.035156 C 556.667969 403.457031 556.660156 403.882812 556.660156 404.308594 C 556.660156 420.5 568.667969 433.625 583.484375 433.625 C 598.296875 433.625 610.308594 420.5 610.308594 404.308594 C 610.308594 388.117188 598.296875 374.988281 583.484375 374.988281 C 569.359375 374.988281 557.78125 386.925781 556.738281 402.074219 L 557.230469 402.074219 L 557.230469 400.308594 L 558.296875 400.308594 L 558.296875 402.074219 L 559.96875 402.074219 L 559.96875 403.035156 L 558.296875 403.035156 L 558.296875 407.167969 C 558.296875 407.507812 558.363281 407.75 558.496094 407.894531 C 558.628906 408.03125 558.859375 408.101562 559.1875 408.101562 L 559.96875 408.101562 L 559.96875 409.085938 L 559.011719 409.085938 C 558.417969 409.085938 557.972656 408.9375 557.675781 408.636719 C 557.378906 408.339844 557.230469 407.847656 557.230469 407.167969 L 557.230469 403.035156 Z M 592.277344 403.671875 C 592.011719 404.210938 591.878906 404.835938 591.878906 405.554688 C 591.878906 406.261719 592.011719 406.894531 592.277344 407.449219 C 592.542969 408.003906 592.90625 408.433594 593.367188 408.742188 C 593.832031 409.046875 594.351562 409.203125 594.921875 409.203125 C 595.476562 409.203125 595.960938 409.070312 596.375 408.804688 C 596.789062 408.53125 597.097656 408.1875 597.308594 407.769531 L 597.308594 409.085938 L 598.386719 409.085938 L 598.386719 399.617188 L 597.308594 399.617188 L 597.308594 403.328125 C 597.082031 402.917969 596.757812 402.589844 596.328125 402.34375 C 595.898438 402.085938 595.433594 401.957031 594.933594 401.957031 C 594.355469 401.957031 593.832031 402.109375 593.367188 402.40625 C 592.90625 402.707031 592.542969 403.128906 592.277344 403.671875 Z M 597.019531 404.183594 C 597.214844 404.578125 597.308594 405.039062 597.308594 405.566406 C 597.308594 406.097656 597.214844 406.5625 597.019531 406.960938 C 596.824219 407.355469 596.558594 407.65625 596.222656 407.871094 C 595.894531 408.074219 595.53125 408.175781 595.132812 408.175781 C 594.734375 408.175781 594.371094 408.074219 594.042969 407.871094 C 593.714844 407.65625 593.453125 407.355469 593.261719 406.960938 C 593.066406 406.5625 592.96875 406.089844 592.96875 405.554688 C 592.96875 405.027344 593.066406 404.566406 593.261719 404.171875 C 593.453125 403.78125 593.714844 403.480469 594.042969 403.277344 C 594.371094 403.070312 594.734375 402.96875 595.132812 402.96875 C 595.53125 402.96875 595.894531 403.074219 596.222656 403.289062 C 596.558594 403.496094 596.824219 403.792969 597.019531 404.183594 Z M 567.113281 405.3125 C 567.113281 405.53125 567.101562 405.769531 567.078125 406.015625 L 561.953125 406.015625 C 561.988281 406.707031 562.207031 407.246094 562.59375 407.640625 C 562.992188 408.023438 563.472656 408.214844 564.035156 408.214844 C 564.496094 408.214844 564.878906 408.101562 565.183594 407.871094 C 565.496094 407.632812 565.714844 407.316406 565.839844 406.921875 L 566.984375 406.921875 C 566.8125 407.597656 566.46875 408.148438 565.957031 408.574219 C 565.441406 408.992188 564.800781 409.203125 564.035156 409.203125 C 563.425781 409.203125 562.878906 409.050781 562.398438 408.753906 C 561.921875 408.453125 561.546875 408.03125 561.273438 407.488281 C 561 406.933594 560.863281 406.292969 560.863281 405.566406 C 560.863281 404.84375 560.996094 404.207031 561.261719 403.660156 C 561.527344 403.113281 561.894531 402.695312 562.371094 402.40625 C 562.859375 402.109375 563.410156 401.957031 564.035156 401.957031 C 564.644531 401.957031 565.183594 402.105469 565.648438 402.394531 C 566.117188 402.683594 566.476562 403.085938 566.726562 403.597656 C 566.984375 404.101562 567.113281 404.671875 567.113281 405.3125 Z M 566.015625 405.066406 C 566.015625 404.625 565.925781 404.246094 565.742188 403.929688 C 565.566406 403.605469 565.320312 403.363281 565.007812 403.199219 C 564.703125 403.03125 564.363281 402.945312 563.988281 402.945312 C 563.449219 402.945312 562.988281 403.132812 562.605469 403.507812 C 562.230469 403.882812 562.019531 404.402344 561.964844 405.066406 Z M 570.382812 402.277344 C 570.039062 402.5 569.773438 402.8125 569.585938 403.210938 L 569.585938 402.074219 L 568.519531 402.074219 L 568.519531 409.085938 L 569.585938 409.085938 L 569.585938 405.273438 C 569.585938 403.855469 570.183594 403.148438 571.375 403.148438 L 571.65625 403.148438 L 571.65625 401.945312 C 571.160156 401.945312 570.734375 402.058594 570.382812 402.277344 Z M 572.488281 405.566406 C 572.488281 404.84375 572.621094 404.210938 572.886719 403.671875 C 573.152344 403.128906 573.519531 402.707031 573.988281 402.40625 C 574.464844 402.109375 575.007812 401.957031 575.613281 401.957031 C 576.402344 401.957031 577.050781 402.167969 577.558594 402.585938 C 578.074219 403.003906 578.414062 403.582031 578.578125 404.324219 L 577.429688 404.324219 C 577.320312 403.898438 577.105469 403.5625 576.785156 403.316406 C 576.472656 403.066406 576.082031 402.945312 575.613281 402.945312 C 575.007812 402.945312 574.515625 403.175781 574.140625 403.636719 C 573.765625 404.085938 573.578125 404.730469 573.578125 405.566406 C 573.578125 406.410156 573.765625 407.0625 574.140625 407.523438 C 574.515625 407.984375 575.007812 408.214844 575.613281 408.214844 C 576.082031 408.214844 576.472656 408.097656 576.785156 407.859375 C 577.097656 407.617188 577.3125 407.277344 577.429688 406.835938 L 578.578125 406.835938 C 578.40625 407.550781 578.0625 408.125 577.546875 408.5625 C 577.03125 408.988281 576.386719 409.203125 575.613281 409.203125 C 575.007812 409.203125 574.464844 409.050781 573.988281 408.753906 C 573.519531 408.453125 573.152344 408.03125 572.886719 407.488281 C 572.621094 406.941406 572.488281 406.300781 572.488281 405.566406 Z M 580 403.671875 C 579.734375 404.210938 579.601562 404.835938 579.601562 405.554688 C 579.601562 406.261719 579.734375 406.894531 580 407.449219 C 580.261719 408.003906 580.625 408.433594 581.085938 408.742188 C 581.546875 409.046875 582.0625 409.203125 582.632812 409.203125 C 583.1875 409.203125 583.671875 409.070312 584.082031 408.804688 C 584.503906 408.53125 584.820312 408.191406 585.03125 407.78125 L 585.03125 409.085938 L 586.109375 409.085938 L 586.109375 402.074219 L 585.03125 402.074219 L 585.03125 403.351562 C 584.828125 402.953125 584.519531 402.621094 584.109375 402.355469 C 583.695312 402.089844 583.207031 401.957031 582.644531 401.957031 C 582.074219 401.957031 581.554688 402.109375 581.085938 402.40625 C 580.625 402.707031 580.261719 403.128906 580 403.671875 Z M 584.738281 404.183594 C 584.933594 404.578125 585.03125 405.039062 585.03125 405.566406 C 585.03125 406.097656 584.933594 406.5625 584.738281 406.960938 C 584.542969 407.355469 584.277344 407.65625 583.941406 407.871094 C 583.613281 408.074219 583.253906 408.175781 582.855469 408.175781 C 582.457031 408.175781 582.09375 408.074219 581.765625 407.871094 C 581.4375 407.65625 581.175781 407.355469 580.980469 406.960938 C 580.785156 406.5625 580.6875 406.089844 580.6875 405.554688 C 580.6875 405.027344 580.785156 404.566406 580.980469 404.171875 C 581.175781 403.78125 581.4375 403.480469 581.765625 403.277344 C 582.09375 403.070312 582.457031 402.96875 582.855469 402.96875 C 583.253906 402.96875 583.613281 403.074219 583.941406 403.289062 C 584.277344 403.496094 584.542969 403.792969 584.738281 404.183594 Z M 588.972656 403.210938 C 589.164062 402.8125 589.425781 402.5 589.769531 402.277344 C 590.121094 402.058594 590.546875 401.945312 591.046875 401.945312 L 591.046875 403.148438 L 590.765625 403.148438 C 589.574219 403.148438 588.972656 403.855469 588.972656 405.273438 L 588.972656 409.085938 L 587.910156 409.085938 L 587.910156 402.074219 L 588.972656 402.074219 Z M 588.972656 403.210938 " fill-opacity="1" fill-rule="evenodd"/></g><path fill="#ffffff" d="M 704.921875 387.007812 C 701.261719 387.171875 698.105469 388.296875 695.804688 390.257812 C 695.375 390.625 694.554688 391.496094 694.238281 391.921875 C 693.144531 393.394531 692.515625 395.039062 692.289062 397.027344 C 692.242188 397.429688 692.242188 398.847656 692.289062 399.203125 C 692.601562 401.59375 693.800781 403.441406 696.144531 405.167969 C 696.925781 405.742188 697.542969 406.128906 699.320312 407.164062 C 699.980469 407.546875 700.683594 407.964844 700.878906 408.089844 C 702.421875 409.070312 703.15625 409.847656 703.394531 410.753906 C 703.472656 411.058594 703.472656 411.53125 703.394531 411.855469 C 703.136719 412.886719 702.246094 413.742188 700.945312 414.214844 C 700.234375 414.472656 699.476562 414.601562 698.527344 414.625 C 696.246094 414.679688 693.589844 414.0625 691.320312 412.949219 C 690.984375 412.78125 690.492188 412.511719 690.421875 412.457031 C 690.40625 412.441406 690.382812 412.433594 690.375 412.445312 C 690.34375 412.476562 688.910156 419.738281 688.929688 419.757812 C 688.96875 419.796875 689.570312 420.039062 690.082031 420.222656 C 691.785156 420.835938 693.75 421.28125 695.597656 421.480469 C 697.183594 421.652344 698.855469 421.65625 700.324219 421.496094 C 704.847656 421 708.460938 418.976562 710.351562 415.886719 C 711.425781 414.128906 711.941406 412.121094 711.890625 409.878906 C 711.867188 408.980469 711.769531 408.324219 711.550781 407.582031 C 710.917969 405.464844 709.503906 403.757812 707.035156 402.125 C 706.46875 401.75 705.800781 401.347656 704.644531 400.6875 C 703.335938 399.941406 702.84375 399.640625 702.332031 399.273438 C 701.832031 398.917969 701.5625 398.6875 701.300781 398.390625 C 700.839844 397.875 700.640625 397.410156 700.640625 396.855469 C 700.640625 395.628906 701.765625 394.574219 703.523438 394.160156 C 704.476562 393.9375 705.773438 393.902344 707.089844 394.074219 C 708.59375 394.269531 710.324219 394.773438 711.632812 395.398438 C 711.8125 395.484375 711.960938 395.550781 711.96875 395.546875 C 711.96875 395.542969 712.289062 393.976562 712.675781 392.0625 C 713.0625 390.152344 713.382812 388.566406 713.390625 388.539062 C 713.410156 388.476562 713.328125 388.4375 712.78125 388.234375 C 711.191406 387.648438 709.226562 387.222656 707.445312 387.074219 C 707.238281 387.058594 707.003906 387.039062 706.914062 387.03125 C 706.714844 387.015625 705.183594 386.996094 704.921875 387.007812 Z M 640.839844 387.5625 C 640.820312 387.617188 640.667969 388.582031 640.675781 388.59375 C 640.679688 388.597656 640.863281 388.640625 641.078125 388.6875 C 642.773438 389.0625 644.519531 389.605469 646.054688 390.230469 C 647.402344 390.777344 647.890625 391 648.355469 391.265625 C 649.195312 391.75 649.746094 392.320312 650.054688 393.019531 C 650.308594 393.589844 650.292969 393.53125 651.726562 399.457031 C 652.316406 401.890625 652.84375 404.074219 652.898438 404.308594 C 653.003906 404.726562 655.324219 414.3125 655.566406 415.320312 C 655.636719 415.609375 655.976562 417.015625 656.324219 418.449219 L 656.957031 421.058594 L 665.464844 421.058594 L 672.003906 404.316406 C 675.597656 395.109375 678.546875 387.566406 678.550781 387.550781 C 678.554688 387.539062 676.738281 387.527344 674.320312 387.527344 L 670.078125 387.527344 L 670.035156 387.648438 C 670.011719 387.714844 668.121094 392.824219 665.839844 399.003906 C 663.558594 405.1875 661.683594 410.261719 661.671875 410.285156 C 661.652344 410.316406 661.648438 410.320312 661.648438 410.292969 C 661.644531 410.21875 658.210938 390.898438 658.144531 390.597656 C 657.902344 389.464844 657.246094 388.546875 656.308594 388.023438 C 655.84375 387.765625 655.367188 387.617188 654.804688 387.558594 C 654.378906 387.511719 640.855469 387.515625 640.839844 387.5625 Z M 681.957031 387.605469 C 681.949219 387.648438 680.457031 395.152344 678.648438 404.277344 C 676.835938 413.40625 675.347656 420.917969 675.339844 420.96875 L 675.324219 421.058594 L 683.40625 421.058594 L 686.707031 404.371094 C 688.519531 395.191406 690.011719 387.648438 690.015625 387.605469 L 690.027344 387.527344 L 681.96875 387.527344 Z M 726.558594 387.558594 C 725.222656 387.707031 724.242188 388.539062 723.546875 390.113281 C 723.460938 390.308594 711.710938 420.472656 711.507812 421.023438 C 711.496094 421.050781 712.355469 421.058594 715.734375 421.058594 L 719.972656 421.058594 L 720.296875 420.0625 C 720.472656 419.515625 720.839844 418.375 721.109375 417.53125 L 721.605469 416 L 726.777344 416 C 729.621094 416 731.949219 416 731.949219 416.003906 C 731.949219 416.007812 732.171875 417.144531 732.445312 418.527344 L 732.941406 421.046875 L 736.6875 421.050781 C 740.25 421.058594 740.433594 421.058594 740.417969 421.007812 C 740.40625 420.957031 733.902344 387.5625 733.902344 387.542969 C 733.902344 387.515625 726.789062 387.535156 726.558594 387.558594 Z M 729.441406 402.863281 C 730.121094 406.28125 730.679688 409.101562 730.679688 409.132812 C 730.679688 409.183594 730.570312 409.183594 727.320312 409.183594 C 724.648438 409.183594 723.964844 409.175781 723.976562 409.148438 C 724.136719 408.640625 728.183594 396.605469 728.191406 396.621094 C 728.195312 396.632812 728.757812 399.441406 729.441406 402.863281 Z M 729.441406 402.863281 " fill-opacity="1" fill-rule="evenodd"/><path fill="#ffffff" d="M 770.789062 380.375 L 775.289062 380.375 L 775.289062 409.453125 L 770.789062 409.453125 Z M 770.789062 380.375 " fill-opacity="1" fill-rule="nonzero"/><path fill="#ffffff" d="M 778.15625 380.375 L 780.203125 380.375 L 780.203125 409.453125 L 778.15625 409.453125 Z M 778.15625 380.375 " fill-opacity="1" fill-rule="nonzero"/><path fill="#ffffff" d="M 783.886719 380.375 L 787.570312 380.375 L 787.570312 409.453125 L 783.886719 409.453125 Z M 783.886719 380.375 " fill-opacity="1" fill-rule="nonzero"/><path fill="#ffffff" d="M 790.84375 380.375 L 793.296875 380.375 L 793.296875 409.453125 L 790.84375 409.453125 Z M 790.84375 380.375 " fill-opacity="1" fill-rule="nonzero"/><path fill="#ffffff" d="M 796.574219 380.375 L 802.304688 380.375 L 802.304688 409.453125 L 796.574219 409.453125 Z M 796.574219 380.375 " fill-opacity="1" fill-rule="nonzero"/><path fill="#ffffff" d="M 828.5 380.375 L 833.410156 380.375 L 833.410156 409.453125 L 828.5 409.453125 Z M 828.5 380.375 " fill-opacity="1" fill-rule="nonzero"/><path fill="#ffffff" d="M 806.398438 380.375 L 810.078125 380.375 L 810.078125 409.453125 L 806.398438 409.453125 Z M 806.398438 380.375 " fill-opacity="1" fill-rule="nonzero"/><path fill="#ffffff" d="M 836.683594 380.375 L 839.957031 380.375 L 839.957031 409.453125 L 836.683594 409.453125 Z M 836.683594 380.375 " fill-opacity="1" fill-rule="nonzero"/><path fill="#ffffff" d="M 813.765625 380.375 L 816.628906 380.375 L 816.628906 409.453125 L 813.765625 409.453125 Z M 813.765625 380.375 " fill-opacity="1" fill-rule="nonzero"/><path fill="#ffffff" d="M 843.234375 380.375 L 845.691406 380.375 L 845.691406 409.453125 L 843.234375 409.453125 Z M 843.234375 380.375 " fill-opacity="1" fill-rule="nonzero"/><path fill="#ffffff" d="M 821.132812 380.375 L 823.996094 380.375 L 823.996094 409.453125 L 821.132812 409.453125 Z M 821.132812 380.375 " fill-opacity="1" fill-rule="nonzero"/><path fill="#ffffff" d="M 849.371094 380.375 L 853.875 380.375 L 853.875 409.453125 L 849.371094 409.453125 Z M 849.371094 380.375 " fill-opacity="1" fill-rule="nonzero"/><path fill="#ffffff" d="M 779.621094 421.039062 C 780.308594 421.28125 780.855469 421.691406 781.257812 422.269531 C 781.660156 422.835938 781.863281 423.542969 781.863281 424.390625 C 781.863281 425.558594 781.445312 426.464844 780.617188 427.105469 C 779.785156 427.734375 778.574219 428.050781 776.984375 428.050781 L 770.789062 428.050781 L 770.789062 414.566406 L 776.628906 414.566406 C 778.101562 414.566406 779.234375 414.878906 780.03125 415.507812 C 780.824219 416.125 781.222656 416.980469 781.222656 418.070312 C 781.222656 418.738281 781.078125 419.328125 780.792969 419.84375 C 780.507812 420.355469 780.117188 420.753906 779.621094 421.039062 Z M 773.101562 416.53125 L 773.101562 420.246094 L 776.378906 420.246094 C 777.183594 420.246094 777.800781 420.09375 778.230469 419.785156 C 778.667969 419.464844 778.886719 419.003906 778.886719 418.398438 C 778.886719 417.78125 778.667969 417.320312 778.230469 417.011719 C 777.800781 416.691406 777.183594 416.53125 776.378906 416.53125 Z M 776.839844 426.085938 C 778.632812 426.085938 779.53125 425.4375 779.53125 424.136719 C 779.53125 422.839844 778.632812 422.191406 776.839844 422.191406 L 773.101562 422.191406 L 773.101562 426.085938 Z M 776.839844 426.085938 " fill-opacity="1" fill-rule="nonzero"/><path fill="#ffffff" d="M 791.933594 428.242188 C 790.664062 428.242188 789.515625 427.945312 788.496094 427.355469 C 787.476562 426.75 786.675781 425.921875 786.09375 424.871094 C 785.515625 423.804688 785.21875 422.617188 785.21875 421.308594 C 785.21875 419.996094 785.515625 418.816406 786.09375 417.761719 C 786.675781 416.695312 787.476562 415.867188 788.496094 415.277344 C 789.515625 414.675781 790.664062 414.371094 791.933594 414.371094 C 793.203125 414.371094 794.347656 414.675781 795.371094 415.277344 C 796.390625 415.867188 797.191406 416.691406 797.773438 417.742188 C 798.355469 418.796875 798.644531 419.984375 798.644531 421.308594 C 798.644531 422.628906 798.355469 423.816406 797.773438 424.871094 C 797.191406 425.921875 796.390625 426.75 795.371094 427.355469 C 794.347656 427.945312 793.203125 428.242188 791.933594 428.242188 Z M 791.933594 426.046875 C 792.765625 426.046875 793.511719 425.847656 794.175781 425.449219 C 794.84375 425.039062 795.363281 424.472656 795.742188 423.753906 C 796.121094 423.019531 796.3125 422.207031 796.3125 421.308594 C 796.3125 420.40625 796.121094 419.597656 795.742188 418.878906 C 795.363281 418.148438 794.84375 417.582031 794.175781 417.183594 C 793.511719 416.773438 792.765625 416.566406 791.933594 416.566406 C 791.105469 416.566406 790.355469 416.773438 789.691406 417.183594 C 789.027344 417.582031 788.503906 418.148438 788.121094 418.878906 C 787.746094 419.597656 787.554688 420.40625 787.554688 421.308594 C 787.554688 422.207031 787.746094 423.019531 788.121094 423.753906 C 788.503906 424.472656 789.027344 425.039062 789.691406 425.449219 C 790.355469 425.847656 791.105469 426.046875 791.933594 426.046875 Z M 791.933594 426.046875 " fill-opacity="1" fill-rule="nonzero"/><path fill="#ffffff" d="M 802.878906 414.566406 L 805.191406 414.566406 L 805.191406 425.929688 L 811.710938 425.929688 L 811.710938 428.050781 L 802.878906 428.050781 Z M 802.878906 414.566406 " fill-opacity="1" fill-rule="nonzero"/><path fill="#ffffff" d="M 824.664062 425.949219 L 824.664062 428.050781 L 815.316406 428.050781 L 815.316406 414.566406 L 824.417969 414.566406 L 824.417969 416.664062 L 817.632812 416.664062 L 817.632812 420.171875 L 823.648438 420.171875 L 823.648438 422.230469 L 817.632812 422.230469 L 817.632812 425.949219 Z M 824.664062 425.949219 " fill-opacity="1" fill-rule="nonzero"/><path fill="#ffffff" d="M 831.554688 416.683594 L 827.421875 416.683594 L 827.421875 414.566406 L 838 414.566406 L 838 416.683594 L 833.867188 416.683594 L 833.867188 428.050781 L 831.554688 428.050781 Z M 831.554688 416.683594 " fill-opacity="1" fill-rule="nonzero"/><path fill="#ffffff" d="M 847.164062 428.242188 C 845.894531 428.242188 844.746094 427.945312 843.726562 427.355469 C 842.707031 426.75 841.90625 425.921875 841.320312 424.871094 C 840.742188 423.804688 840.453125 422.617188 840.453125 421.308594 C 840.453125 419.996094 840.742188 418.816406 841.320312 417.761719 C 841.90625 416.695312 842.707031 415.867188 843.726562 415.277344 C 844.746094 414.675781 845.894531 414.371094 847.164062 414.371094 C 848.433594 414.371094 849.578125 414.675781 850.601562 415.277344 C 851.621094 415.867188 852.421875 416.691406 853 417.742188 C 853.582031 418.796875 853.875 419.984375 853.875 421.308594 C 853.875 422.628906 853.582031 423.816406 853 424.871094 C 852.421875 425.921875 851.621094 426.75 850.601562 427.355469 C 849.578125 427.945312 848.433594 428.242188 847.164062 428.242188 Z M 847.164062 426.046875 C 847.992188 426.046875 848.742188 425.847656 849.40625 425.449219 C 850.070312 425.039062 850.59375 424.472656 850.972656 423.753906 C 851.351562 423.019531 851.542969 422.207031 851.542969 421.308594 C 851.542969 420.40625 851.351562 419.597656 850.972656 418.878906 C 850.59375 418.148438 850.070312 417.582031 849.40625 417.183594 C 848.742188 416.773438 847.992188 416.566406 847.164062 416.566406 C 846.332031 416.566406 845.582031 416.773438 844.921875 417.183594 C 844.253906 417.582031 843.730469 418.148438 843.351562 418.878906 C 842.972656 419.597656 842.78125 420.40625 842.78125 421.308594 C 842.78125 422.207031 842.972656 423.019531 843.351562 423.753906 C 843.730469 424.472656 844.253906 425.039062 844.921875 425.449219 C 845.582031 425.847656 846.332031 426.046875 847.164062 426.046875 Z M 847.164062 426.046875 " fill-opacity="1" fill-rule="nonzero"/><path fill="#ffffff" d="M 888.183594 386.179688 C 888.300781 385.859375 888.554688 385.558594 888.835938 385.402344 L 889.058594 385.277344 L 894.792969 385.292969 C 899.871094 385.3125 900.578125 385.324219 900.960938 385.398438 C 902.1875 385.648438 902.988281 385.917969 903.75 386.335938 C 905.539062 387.320312 906.59375 388.882812 907.011719 391.164062 C 907.132812 391.84375 907.183594 393.441406 907.105469 394.308594 C 906.890625 396.710938 906.289062 398.992188 905.4375 400.640625 C 904.039062 403.351562 901.875 404.988281 898.882812 405.597656 C 897.933594 405.792969 897.433594 405.828125 895.109375 405.859375 L 892.808594 405.894531 L 892.566406 406.046875 C 892.308594 406.214844 892.101562 406.480469 891.996094 406.78125 C 891.960938 406.882812 891.683594 408.777344 891.386719 410.996094 L 891.382812 411.007812 C 890.871094 414.832031 890.804688 415.316406 890.566406 415.613281 C 890.53125 415.65625 890.492188 415.695312 890.449219 415.742188 C 890.355469 415.835938 890.191406 415.960938 890.078125 416.023438 C 889.878906 416.132812 889.804688 416.136719 887.433594 416.152344 C 885.773438 416.160156 884.941406 416.148438 884.824219 416.109375 C 884.472656 415.988281 884.242188 415.636719 884.242188 415.21875 C 884.242188 415.085938 885.109375 408.550781 886.167969 400.699219 C 887.570312 390.277344 888.113281 386.359375 888.183594 386.179688 Z M 899.941406 393.683594 C 899.707031 392.503906 899.007812 391.847656 897.703125 391.582031 C 897.394531 391.519531 896.90625 391.488281 895.878906 391.472656 C 894.480469 391.449219 894.476562 391.449219 894.296875 391.570312 L 894.296875 391.574219 C 894.25 391.601562 894.210938 391.628906 894.179688 391.660156 C 893.953125 391.867188 893.890625 392.328125 893.417969 395.847656 L 893.414062 395.875 C 893.144531 397.910156 892.917969 399.59375 892.917969 399.613281 C 892.917969 399.683594 896.359375 399.59375 896.738281 399.515625 C 897.765625 399.296875 898.375 398.96875 898.90625 398.347656 C 899.296875 397.886719 899.523438 397.453125 899.722656 396.769531 C 899.984375 395.882812 900.089844 394.40625 899.941406 393.683594 Z M 910.777344 396.804688 C 911.976562 395.933594 913.367188 395.34375 914.714844 395.132812 C 915.304688 395.039062 916.574219 395.023438 917.226562 395.097656 C 919.324219 395.34375 920.640625 396.042969 921.40625 397.328125 C 921.542969 397.554688 921.664062 397.734375 921.671875 397.722656 C 921.679688 397.710938 921.730469 397.382812 921.785156 396.992188 C 921.902344 396.117188 921.984375 395.890625 922.234375 395.695312 L 922.429688 395.546875 L 924.839844 395.53125 C 926.453125 395.519531 927.308594 395.535156 927.429688 395.570312 C 927.527344 395.601562 927.679688 395.710938 927.765625 395.8125 C 927.789062 395.835938 927.808594 395.859375 927.828125 395.878906 C 927.847656 395.894531 927.863281 395.910156 927.878906 395.929688 C 928.066406 396.152344 927.996094 396.671875 927.050781 403.6875 C 926.964844 404.3125 926.875 404.988281 926.777344 405.71875 C 925.8125 412.847656 925.5 415.078125 925.425781 415.257812 C 925.304688 415.566406 925.035156 415.878906 924.769531 416.019531 C 924.566406 416.132812 924.5 416.136719 922.335938 416.148438 C 920.855469 416.160156 920.050781 416.148438 919.933594 416.109375 C 919.691406 416.03125 919.457031 415.765625 919.382812 415.480469 C 919.332031 415.28125 919.339844 415.160156 919.425781 414.53125 C 919.480469 414.136719 919.523438 413.777344 919.523438 413.734375 C 919.523438 413.691406 919.421875 413.769531 919.285156 413.921875 C 918.304688 415.023438 916.921875 415.894531 915.464844 416.324219 C 913.847656 416.804688 911.902344 416.730469 910.359375 416.132812 C 908.199219 415.289062 906.617188 413.179688 906.003906 410.328125 C 905.375 407.402344 905.875 403.789062 907.308594 400.996094 C 908.179688 399.289062 909.433594 397.777344 910.777344 396.804688 Z M 930.226562 396.457031 C 930.226562 396.089844 930.492188 395.683594 930.804688 395.570312 C 930.875 395.546875 932.035156 395.53125 933.386719 395.535156 L 935.851562 395.546875 L 936.054688 395.667969 C 936.308594 395.824219 936.578125 396.121094 936.6875 396.363281 C 936.730469 396.464844 937.363281 398.878906 938.089844 401.722656 C 938.816406 404.566406 939.421875 406.925781 939.4375 406.960938 C 939.457031 407.003906 940.699219 404.90625 942.605469 401.609375 C 944.332031 398.625 945.820312 396.09375 945.914062 395.980469 C 946.011719 395.867188 946.183594 395.722656 946.300781 395.660156 C 946.503906 395.546875 946.5625 395.546875 948.96875 395.527344 C 950.652344 395.519531 951.484375 395.53125 951.601562 395.570312 C 951.800781 395.640625 952.023438 395.847656 952.109375 396.050781 C 952.191406 396.230469 952.199219 396.695312 952.125 396.855469 C 952.027344 397.070312 936.851562 422.734375 936.738281 422.882812 C 936.671875 422.964844 936.496094 423.101562 936.347656 423.1875 L 936.078125 423.34375 L 933.496094 423.328125 L 930.921875 423.3125 L 930.753906 423.167969 C 930.46875 422.910156 930.355469 422.515625 930.464844 422.152344 C 930.5 422.035156 931.585938 420.191406 932.878906 418.054688 C 934.167969 415.917969 935.242188 414.144531 935.257812 414.109375 C 935.277344 414.074219 934.152344 410.128906 932.761719 405.335938 C 931.367188 400.542969 930.226562 396.550781 930.226562 396.457031 Z M 920.703125 403.398438 C 920.308594 402.058594 919.367188 401.128906 918.101562 400.828125 C 917.742188 400.738281 916.894531 400.683594 916.5625 400.726562 C 915.347656 400.878906 914.136719 401.566406 913.367188 402.539062 C 912.402344 403.753906 911.863281 405.511719 911.949219 407.128906 C 912.007812 408.199219 912.316406 409.058594 912.875 409.71875 C 913.390625 410.324219 913.953125 410.667969 914.734375 410.859375 C 915.289062 410.992188 916.289062 410.984375 916.859375 410.84375 C 918.734375 410.371094 920.082031 408.953125 920.667969 406.84375 C 921 405.640625 921.011719 404.457031 920.703125 403.398438 Z M 920.703125 403.398438 " fill-opacity="1" fill-rule="evenodd"/><path fill="#ffffff" d="M 1000.566406 385.410156 C 1000.445312 385.496094 1000.347656 385.621094 1000.285156 385.765625 C 1000.222656 385.933594 999.699219 389.714844 998.25 400.535156 C 997.179688 408.535156 996.304688 415.15625 996.304688 415.253906 C 996.304688 415.644531 996.550781 416 996.894531 416.109375 C 997.015625 416.148438 997.785156 416.160156 999.1875 416.148438 L 1001.296875 416.132812 L 1001.535156 416.007812 C 1001.847656 415.84375 1002.152344 415.449219 1002.246094 415.085938 C 1002.324219 414.792969 1006.152344 386.425781 1006.152344 386.148438 C 1006.152344 385.890625 1005.96875 385.53125 1005.761719 385.398438 L 1005.585938 385.28125 L 1003.171875 385.277344 L 1000.753906 385.277344 Z M 1000.566406 385.410156 " fill-opacity="1" fill-rule="nonzero"/><path fill="#ffffff" d="M 982.800781 395.078125 C 982.738281 395.085938 982.503906 395.121094 982.28125 395.15625 C 982.058594 395.1875 981.640625 395.28125 981.355469 395.363281 C 977.375 396.5 974.351562 400.386719 973.566406 405.363281 C 973.160156 407.929688 973.398438 410.234375 974.277344 412.28125 C 975.554688 415.253906 977.949219 416.75 981.21875 416.621094 C 982.007812 416.585938 982.496094 416.507812 983.230469 416.28125 C 984.492188 415.898438 985.796875 415.085938 986.773438 414.082031 C 986.988281 413.867188 987.164062 413.695312 987.167969 413.703125 C 987.179688 413.710938 987.140625 414.011719 987.09375 414.371094 C 987.042969 414.730469 987 415.113281 987 415.222656 C 987 415.644531 987.238281 415.996094 987.59375 416.109375 C 987.710938 416.144531 988.507812 416.160156 989.972656 416.148438 L 992.171875 416.132812 L 992.429688 415.984375 C 992.753906 415.796875 993.03125 415.441406 993.121094 415.085938 C 993.214844 414.730469 995.628906 396.769531 995.628906 396.445312 C 995.628906 396.03125 995.398438 395.6875 995.050781 395.574219 C 994.8125 395.496094 990.335938 395.5 990.09375 395.578125 C 989.996094 395.609375 989.84375 395.722656 989.75 395.828125 C 989.570312 396.039062 989.539062 396.167969 989.40625 397.199219 L 989.324219 397.800781 L 989.109375 397.429688 C 988.316406 396.070312 986.992188 395.347656 984.839844 395.097656 C 984.402344 395.046875 983.058594 395.035156 982.800781 395.078125 Z M 988.285156 406.914062 C 989.109375 404.03125 988.09375 401.484375 985.867188 400.851562 C 985.496094 400.742188 984.511719 400.671875 984.15625 400.726562 C 981.628906 401.101562 979.851562 403.261719 979.597656 406.261719 C 979.464844 407.835938 979.925781 409.269531 980.820312 410.0625 C 981.734375 410.871094 983.070312 411.160156 984.460938 410.855469 C 986.269531 410.453125 987.695312 408.988281 988.285156 406.914062 Z M 988.285156 406.914062 " fill-opacity="1" fill-rule="evenodd"/><path fill="#ffffff" d="M 956.4375 385.4375 C 956.140625 385.609375 955.980469 385.792969 955.832031 386.128906 C 955.761719 386.285156 955.277344 389.800781 953.796875 400.800781 C 952.042969 413.835938 951.855469 415.289062 951.902344 415.476562 C 951.972656 415.742188 952.21875 416.03125 952.4375 416.105469 C 952.683594 416.183594 957.492188 416.179688 957.765625 416.097656 C 958.03125 416.019531 958.335938 415.683594 958.40625 415.394531 C 958.4375 415.277344 958.703125 413.355469 959 411.117188 C 959.296875 408.882812 959.574219 406.949219 959.613281 406.820312 C 959.707031 406.53125 959.941406 406.21875 960.210938 406.035156 C 960.453125 405.871094 960.371094 405.875 963.128906 405.84375 C 965.207031 405.820312 965.773438 405.769531 966.855469 405.515625 C 968.132812 405.21875 969.199219 404.753906 970.152344 404.082031 C 972.53125 402.402344 974.023438 399.507812 974.601562 395.464844 C 975.09375 391.988281 974.609375 389.472656 973.113281 387.730469 C 972.085938 386.535156 970.6875 385.808594 968.648438 385.421875 C 968.066406 385.308594 967.933594 385.304688 962.386719 385.289062 L 956.714844 385.273438 Z M 966.6875 392.128906 C 966.433594 391.925781 965.871094 391.6875 965.398438 391.582031 C 964.9375 391.476562 962.207031 391.417969 962.023438 391.507812 C 961.875 391.582031 961.714844 391.761719 961.632812 391.945312 C 961.597656 392.03125 961.339844 393.789062 961.058594 395.855469 L 960.550781 399.609375 L 961.929688 399.625 C 963.332031 399.640625 964.074219 399.59375 964.683594 399.445312 C 966.410156 399.027344 967.3125 397.824219 967.597656 395.554688 C 967.808594 393.902344 967.515625 392.796875 966.6875 392.128906 Z M 966.6875 392.128906 " fill-opacity="1" fill-rule="evenodd"/></svg>